<svg id="svg" xmlns="http://www.w3.org/2000/svg" viewBox="0 0 1282.02 924.82"><defs><style>.cls-1{fill:#565c2e;}.cls-1,.cls-2,.cls-3,.cls-4{fill-rule:evenodd;}.cls-2{fill:#d97e3b;}.cls-3{fill:#d5bfa4;}.cls-4{fill:#9ca08c;}</style></defs><path id="path0" class="cls-1" d="M559.39,118.64c-1.4.46-4.61,1.38-7.12,2s-5.72,1.56-7.12,2-4.6,1.35-7.11,2c-12.2,3.39-23.39,7.71-23.39,9,0,.49,2.41,2.15,5.34,3.68s7.17,4,9.4,5.55a68,68,0,0,0,7.74,4.48c2,.95,6.5,4.39,10,7.65a62.13,62.13,0,0,0,10.93,8.3c2.55,1.31,7.77,5.49,11.6,9.28s7.32,6.91,7.76,6.93c2.42.08,35.48,34.67,37.29,39,.8,1.9,2.34,3.74,3.43,4.09,2.08.66,11.58,13.55,15,20.36a35.15,35.15,0,0,0,5.45,7.46C642,254,657,281.89,657,284.83a2.63,2.63,0,0,0,1.65,2.21c2.85,1.09,10.08,19.76,16.66,43a119.73,119.73,0,0,0,4.56,13.73,68.52,68.52,0,0,1,3,7.62c1.42,4.3,1.48,3.5,1-13.21-.56-19.06-2.34-33.9-4.78-39.65a62.86,62.86,0,0,1-2.75-10.16c-3.47-18.61-14.28-53.51-17.93-57.86-2.59-3.12-6.53-10.64-6.54-12.51,0-.71-2.29-5.38-5.08-10.36s-5.08-9.68-5.08-10.43-1.18-2.4-2.62-3.65c-3-2.64-9.4-11.71-12.58-17.93-1.2-2.36-5.59-7.68-9.76-11.82s-7.57-8.15-7.57-8.92-2.76-3.88-6.13-6.91c-5.92-5.3-11.71-10.91-20.63-20-2.34-2.37-5.1-4.59-6.13-4.93a31,31,0,0,1-5.48-3.06c-3.67-2.49-6.91-2.88-11.44-1.39m-88.62,31.45a20.57,20.57,0,0,0-5.89,5.06c-1.21,1.69-5,4.39-8.47,6.06a81.38,81.38,0,0,0-12.3,7.67c-3.29,2.56-7,4.91-8.25,5.22-2.89.73-7.26,6.37-5.37,6.94.72.22,7,1.81,14,3.54,16.76,4.15,36.41,10.68,37.93,12.6.67.84,4.18,2.54,7.82,3.77,14.51,4.92,35.23,14.5,37.61,17.38.84,1,4.19,3,7.45,4.45a106.1,106.1,0,0,1,13.21,7.52c4,2.71,8.31,5.24,9.56,5.64a10.77,10.77,0,0,1,4.23,3.22c2.58,3.28,13.32,11.6,15,11.6.7,0,5.67,4.23,11,9.4s12.93,12.34,16.84,15.94,7.09,7,7.09,7.7c0,1.44,4.3,5.59,5.78,5.59s9.07,9.05,13.82,16.26,6.33,9.16,7.53,9.16,7,8,8.34,11.4c1.52,4,10.33,17.14,11.89,17.74a2.19,2.19,0,0,1,1.44,1.73c0,1.18,1.28,3.77,7.73,15.6,1.9,3.48,3.45,6.74,3.45,7.24,0,1.44,4.18,10.55,4.64,10.09,2.07-2.07-14.35-57.25-18.17-61.07-2-2-6.81-11-6.81-12.67,0-.55-2.12-4.83-4.72-9.51s-5.34-10-6.11-11.81-1.79-3.31-2.28-3.31c-1,0-10.31-13.43-13.25-19.19-1.11-2.17-5.24-7.27-9.17-11.33s-7.16-8-7.16-8.69c0-1.16-3.6-5-15.46-16.37-1.84-1.77-5.82-6-8.85-9.46s-7.14-7.1-9.15-8.15c-3.54-1.86-8.4-6.27-12-10.92a23.78,23.78,0,0,0-6-4.57c-2.32-1.27-10.32-6.46-17.79-11.54s-16.33-10.5-19.68-12c-9.43-4.33-21.66-10.65-29.3-15.12-8.48-5-14.58-5.82-20.18-2.77M388.29,209.5a30.37,30.37,0,0,0-5.11,7.55c-2.35,4.86-7,11.16-13.14,17.73a15.81,15.81,0,0,0-3.44,5.68,12.48,12.48,0,0,1-1.9,4.2c-2.23,2.7-8.63,15.5-8.63,17.27,0,.94-1.83,3.69-4.07,6.11-6.26,6.79-6.75,6.59,20.16,7.94,13.33.67,28.08,1.68,32.79,2.26,19.38,2.36,24.5,3.2,27.69,4.53,1.84.77,8.58,2.38,15,3.58,26.18,4.89,62.18,14.82,64.56,17.81a8.89,8.89,0,0,0,4.06,2.1,60.21,60.21,0,0,1,7.57,2.72c2.51,1.09,8,3.26,12.2,4.82,10.23,3.8,25.41,11.06,25.41,12.14s11.37,7.46,15.11,8.64,18.75,10.72,20.24,12.85a4.5,4.5,0,0,0,2.57,2c.67,0,4.87,2.76,9.34,6.1s8.69,6.08,9.38,6.08,5.37,4.12,10.4,9.15,9.73,9.16,10.45,9.17,3.42,2.18,6,4.83,9.81,9.84,16,16,11.28,11.67,11.28,12.27c0,1.44,11.23,12.92,11.94,12.21s-2.67-9.78-4.38-11.78a36.15,36.15,0,0,1-3.49-7.08c-4.38-11.15-14.59-30.69-17.43-33.36-1.6-1.52-2.91-3.14-2.91-3.62s-2.5-4.69-5.55-9.38-6.26-9.88-7.12-11.54-4.66-6.2-8.44-10.07-7.56-8.36-8.39-10c-1.4-2.72-27.76-29.86-29-29.86s-16.25-13.18-17.53-15.25a8.81,8.81,0,0,0-3.76-3c-1.35-.52-5.8-3.39-9.88-6.38a74.44,74.44,0,0,0-10.78-6.8,22.85,22.85,0,0,1-6.56-4.74c-3.39-3.6-21.45-13-33-17.19-3.76-1.36-7.22-3.17-7.7-4-1.1-2-5.62-4.3-14-7.18-3.65-1.26-9.14-3.2-12.22-4.31s-7.42-2.48-9.65-3.06c-5.77-1.48-20.64-6.91-22.13-8.09-.69-.55-4.69-1.76-8.88-2.71s-10.37-2.35-13.72-3.13c-23.4-5.39-35.94-6.4-39.45-3.14m-39.7,96.58c-2.09,3.2-4.83,484.79-2.76,486.86,1.27,1.27,8.62,1.38,62.85.93l30.75-.25V779.86c0-16.11.42-16.73,7.86-11.5a86.11,86.11,0,0,0,8.64,5.34,15.91,15.91,0,0,1,5.19,4c3.45,5.26,43.07,18.92,54.85,18.92a43.13,43.13,0,0,1,8.85,2c7.16,2.28,25.36,2.77,33.55.89,2.52-.57,9.38-1.91,15.25-3,13.36-2.42,29.29-6.57,36.6-9.54,3.07-1.25,7.76-3.07,10.42-4.05a25.35,25.35,0,0,0,7.74-4.67,46.45,46.45,0,0,1,8.89-6.12,131.07,131.07,0,0,0,13.32-8.7c4-3,7.81-5.49,8.39-5.49a1.05,1.05,0,0,0,1-1c0-.57,4.4-5.71,9.78-11.44,12.06-12.82,18.76-22.1,23.84-33,2.15-4.63,4.55-8.65,5.33-8.95,4.31-1.65,14.21-34.84,17-56.86a96.27,96.27,0,0,1,2.61-13.65c2-6,2-28.42,0-35.21a122.44,122.44,0,0,1-2.6-14.09,187,187,0,0,0-7.32-32.61c-4.74-13.82-8.11-21.7-9.5-22.24-.82-.31-3.31-4.35-5.53-9a115,115,0,0,0-14-21.64c-7-8.16-20.28-22.59-21.52-23.31-.88-.51-4.58-3.32-8.22-6.23a77.34,77.34,0,0,0-12.46-8c-3.22-1.5-6.29-3.56-6.82-4.56-1.2-2.24-5.74-4.44-18.33-8.92-40.91-14.55-92.27-14.62-129.62-.18-4.47,1.73-9.37,3.6-10.9,4.17a20.38,20.38,0,0,0-5.59,3.68c-7.17,6.74-21.91,14.28-25.34,13-1.11-.42-1.41-14.46-1.62-77.56l-.26-77L428.24,312c-11.81-1.4-29.86-2.89-51-4.22-10.06-.63-14.52-1.32-16.23-2.52-3.74-2.62-10.48-2.19-12.44.8M552.47,524.7a108.18,108.18,0,0,1,13.73,3.67l9.73,3.59c5.57,2.06,11.26,5.87,17,11.35,2.74,2.64,7.27,6.77,10,9.18a37.63,37.63,0,0,1,7.92,10,58,58,0,0,0,6.51,9.85c3.81,4.39,4.69,6.3,7.57,16.41,1,3.36,2.15,7.51,2.66,9.22,1.18,4,1.21,34.77,0,38.67-.48,1.62-1.67,6.38-2.62,10.57-2.14,9.33-3.22,11.84-6.8,15.76a28.59,28.59,0,0,0-4.46,7c-2,4.81-11.92,16.17-16.49,18.9-1.82,1.08-3.3,2.57-3.3,3.31,0,2.11-10,9-17.78,12.29-43.31,18.26-101.88,2.94-120.42-31.49A26,26,0,0,0,452,668c-11.6-11.57-16.86-51.07-10.18-76.5,2.94-11.21,8.67-23.89,11.23-24.87.85-.32,2.24-2.26,3.1-4.3,1.6-3.85,16.31-19.76,18.26-19.76.61,0,1.65-.86,2.31-1.92,3.05-4.88,19.74-12.37,35.38-15.87,8.34-1.87,30.66-1.88,40.35,0M73,860.59c-.3.49-.81,36.51-1.13,80s-.66,81-.77,83.23l-.2,4.07h48.79c54.25,0,54.4,0,69.38-7.09,32.56-15.38,33.31-58.87,1.34-77.31-9.32-5.38-9.46-5.64-4.74-8.56,14.95-9.24,21.75-31.8,14.87-49.36-4.92-12.54-16.37-20.76-34.08-24.44C158.38,859.49,74,859,73,860.59m461,13.23c-.59,1.11-1.08,7.64-1.09,14.53,0,15.54.12,15.31-9.16,15.17-9.74-.15-10.14.28-10.14,10.68v8.52h7.43c12.26,0,11.28-3.38,12,41.35.34,22.91,1,39.89,1.68,42,.6,2,1.38,4.85,1.74,6.42,4,18,43.57,23.63,58.88,8.32,1.42-1.41-3.11-14.77-6-17.63-.25-.25-3.38,1-7,2.74-11.13,5.48-18.67,3.6-24-6l-2.54-4.53V960c0-41.81-2.39-37.28,19.6-37.3l16.56,0-.29-9.4-.29-9.41-13.22-.16c-7.27-.09-14.59-.21-16.26-.27-5.83-.2-6.06-.76-6.61-16.55l-.51-14.53-9.86-.29c-8.92-.26-10-.1-10.92,1.71m-371.11,9.71c19.64,8.36,22,34.66,4,43.8-11.1,5.63-68,7.33-71.33,2.14-1.37-2.13-.91-45.85.5-47.27,2.29-2.31,61-1.15,66.84,1.33m132,17.87c-23.24,3.92-42.4,19.41-49.64,40.13-.39,1.12-1.34,3.63-2.1,5.59-2.08,5.33-2.53,33.9-.61,38.6.81,2,2.77,6.79,4.35,10.71,14,34.61,69.53,45.43,101.92,19.83,7.2-5.69,7.23-6.09,1.16-13.72-6.24-7.84-5-7.57-11.41-2.48-23.95,18.93-58.78,12.25-71-13.63-6-12.77-9.76-11.86,48.59-11.86h48.34l-.53-13c-1.41-35-20.14-56.62-52.05-60.18-10.56-1.18-10.21-1.17-17,0m131.75,1.4c-20.44,3.9-31.08,15.67-31.28,34.63-.21,19.11,7.71,26.63,36.43,34.63,28.2,7.84,33.27,10.33,37.07,18.18,10.94,22.6-32.7,29.4-61.65,9.6-6.29-4.31-7.77-3.9-12.5,3.45-6.11,9.48-5.74,10.35,7.09,16.76,48.6,24.27,101.48,2.59,90-36.9-4.51-15.52-12.32-20.57-44.76-28.94-23.78-6.15-31.65-12.87-27.86-23.76,4.86-13.93,32.15-14.15,57.18-.48,4.58,2.51,4.38,2.67,9.64-7.71,4.69-9.25,4.75-8.9-2-12.31-13-6.61-41.57-10.17-57.37-7.15m853.93,0c-20.54,3.91-31,15.57-31.28,34.66s7.72,26.61,36.43,34.6c28.2,7.84,33.27,10.33,37.07,18.18,10.94,22.6-32.7,29.4-61.65,9.6-6.29-4.31-7.76-3.9-12.5,3.45-6.11,9.48-5.75,10.35,7.1,16.76,48.59,24.27,101.47,2.59,90-36.9-4.51-15.52-12.32-20.57-44.76-28.94-23.78-6.15-31.65-12.87-27.86-23.76,4.8-13.76,34.86-14,57.34-.42,4.31,2.59,4.09,2.77,9.11-7.21s5.08-9.52-2.29-13.24c-12.42-6.25-41.33-9.71-56.7-6.78M318.68,924c10.43,4.79,20,17.69,20.43,27.54l.18,4.24-12.19.77c-17.21,1.09-61.34.31-62.76-1.1-2.42-2.43,3-15,9.58-22.13,11.31-12.27,29.91-16.14,44.76-9.32M171.82,955.65c25.31,11.69,20.64,43.46-7.34,50-9.9,2.3-67.17,1.85-68.68-.53-1.12-1.79-1.36-51.15-.25-52.26.42-.41,16.31-.6,35.33-.42l34.58.32,6.36,2.94" transform="translate(-67.65 -108.45)"/><path id="path1" class="cls-2" d="M828.18,112.65a17.58,17.58,0,0,1-5.23,3.56c-2.77,1.17-32.18,29.53-42.54,41-6.79,7.54-12.78,15.59-14.83,20-1.19,2.51-3.23,5.27-4.55,6.13-2.36,1.56-9.51,12.33-9.51,14.35,0,1.29-7.83,15.21-10.13,18-4,4.84-14.37,33.48-18.8,51.84-.94,3.92-2.37,7.84-3.17,8.73-1.31,1.45-4.07,14-6.55,29.9-1.61,10.33-2.47,34.06-1.23,34.06.6,0,1.65-1.72,2.33-3.81a88.38,88.38,0,0,1,4.14-9.63A171.16,171.16,0,0,0,724.72,310c2-6,4.82-13.48,6.2-16.55s3.35-8,4.4-11a35.87,35.87,0,0,1,5.48-9.58,38.16,38.16,0,0,0,5.61-9.6c2.54-6.78,5-10.72,17.19-27.58,5.38-7.44,10.53-15,11.46-16.78a22.36,22.36,0,0,1,3.91-5.28c6.1-5.57,15.2-15.39,15.22-16.42,0-.65,1.71-2.48,3.76-4.07s8.08-7.24,13.4-12.55,10.62-10.13,11.78-10.73c2.26-1.19,17.46-13.1,22.42-17.58,4.62-4.17,16.37-12.36,17.74-12.36,2.18,0,10.32-6.22,11.48-8.77,1.91-4.2-4.1-7.19-31.76-15.84a44.52,44.52,0,0,1-8.61-3.47c-2.74-1.92-4-1.76-6.22.78m81.93,31.08-11.07,5a56.62,56.62,0,0,0-11,6.45c-1.9,1.67-4.12,3-4.93,3s-4.39,1.79-8,4-9,5.16-12,6.6a59.44,59.44,0,0,0-12,8.73c-3.57,3.37-7.09,6.12-7.83,6.12-1.52,0-13.62,8.88-18.22,13.37-1.68,1.64-7.85,7.24-13.72,12.45-16.5,14.65-39.73,41.62-45.31,52.61a24,24,0,0,1-4.87,6.66c-2.63,2.07-9.8,12.69-9.8,14.51,0,.61-1.83,4.33-4.07,8.28s-4.06,7.56-4.06,8.05-.72,1.27-1.59,1.76c-1.71.95-7.35,12.95-11.1,23.61-1.28,3.64-3.55,9.58-5,13.22a87.54,87.54,0,0,0-3.73,11.16c-.57,2.51-1.69,5.28-2.49,6.17-1.3,1.44-3.51,10.14-3.51,13.81,0,2.37,3,1.52,4.06-1.13.52-1.38,3-6.17,5.56-10.63s4.61-8.64,4.61-9.26c0-2.07,8.38-15.27,10.37-16.33,1.08-.58,2.8-3,3.83-5.3,2.2-5,12.76-19.33,23.41-31.7,4.2-4.87,8.66-10.41,9.93-12.31s2.75-3.45,3.29-3.45,5.46-4.45,10.93-9.91C803.12,258.17,819,245,823.47,243.09c1.63-.69,3.24-2,3.57-2.81.73-1.91,10.86-9.5,14.52-10.89s15.84-9.43,18.13-12c1.06-1.21,2.44-2.18,3-2.18s5.23-2,10.26-4.52,13-6.21,17.79-8.26,9.46-4.59,10.46-5.64a5.92,5.92,0,0,1,3-1.92,84.25,84.25,0,0,0,10.38-3.4c5-1.88,14-4.84,19.83-6.59,28.11-8.38,29.4-9,26.84-13.14-1.66-2.67-10.53-9.31-15.25-11.41a21,21,0,0,1-6.61-4.85c-7.62-9.35-22-15.09-29.38-11.73M984.32,204c-4.76,1-13,2.86-18.3,4s-12.86,2.78-16.77,3.56c-8.11,1.6-19.61,5.44-35.08,11.7-10.13,4.1-13.21,5.37-30,12.4-3.91,1.65-8.26,4.08-9.65,5.41a39.16,39.16,0,0,1-8.65,5.2,155.52,155.52,0,0,0-13.72,7.46c-4.19,2.58-8.88,5.24-10.42,5.91s-2.8,1.64-2.8,2.17c0,1.06-13.35,11-16.06,12-2.17.78-10.73,7.54-11.29,8.93-.68,1.68-8.63,8.65-9.88,8.65-.63,0-4.29,3.16-8.13,7l-18.34,18.4c-3.63,3.63-7.32,8-8.19,9.66s-4.65,6.07-8.38,9.76-7.62,8.49-8.64,10.67a46.9,46.9,0,0,1-9.9,13.62c-2.82,2.55-8.48,12.51-16.06,28.21-2.23,4.62-4.46,8.39-5,8.39-1.24,0-5.77,11.7-6.59,17-.87,5.69.12,5.46,6.63-1.51,14.19-15.19,38.62-38.71,41.4-39.87,1.71-.71,3.36-2.08,3.67-3,.72-2.29,12.53-11.86,17.71-14.36a47.61,47.61,0,0,0,9.43-7.17c3-2.87,6.78-5.81,8.46-6.53s7.12-3.86,12.1-7,9.49-5.68,10-5.68,2.62-1.44,4.62-3.2a58.21,58.21,0,0,1,11.32-6.7l16.33-7.48c4.76-2.18,9.42-4,10.34-4s3.12-1.21,4.87-2.68c4.54-3.82,41.16-15.76,57.53-18.76a33.22,33.22,0,0,0,9.08-3c6.68-4.09,45.07-9.29,82.85-11.21,12.58-.63,23.44-1.33,24.14-1.54,1.73-.53-2.85-13.12-8-22-2.16-3.73-3.94-7.32-3.94-8s-1.29-2.41-2.86-3.89c-3-2.83-10.94-14.08-12.1-17.16-5.43-14.33-15.26-19.14-31.8-15.53m-150,153c-2.24,1.37-6.33,3.76-9.09,5.32a62.93,62.93,0,0,0-10,7.56,52.88,52.88,0,0,1-10.73,7.55c-7.5,3.71-18.27,11.52-19,13.77-.31,1-2.49,2.92-4.84,4.33-5.38,3.21-15.45,13-17.51,16.93-.85,1.66-2.16,3-2.88,3-1.36,0-6.51,5.87-8.62,9.83-1.79,3.37-1.73,366.35.07,367.49,2.49,1.58,84.52,1,86.74-.59,1.7-1.25,2-3.09,2.48-13.37.67-15.79.83-15.87,13.26-7.18,43.06,30.08,114,35.4,164.64,12.35,4.19-1.9,8.66-3.75,9.91-4.1s2.29-1,2.29-1.55c0-1.19,14-10.61,17.26-11.65,1.39-.44,6.44-4.85,11.24-9.81s9.23-9,9.88-9c1.38,0,11.43-12.15,11.43-13.82,0-.64,2.53-3.84,5.61-7.14a52.72,52.72,0,0,0,7.74-10.56c1.17-2.51,3.9-8.23,6-12.7a129.17,129.17,0,0,0,5.86-14.44c1.07-3.46,2.68-7,3.57-7.92,1.78-1.79,2.6-4.53,5.61-18.81,7.79-36.94,4.58-100.87-5.67-113-.77-.91-2.69-5.25-4.27-9.66-5.22-14.58-12.21-27.8-17.61-33.33-2.77-2.85-5.65-6.64-6.4-8.45s-4.12-5.92-7.48-9.15-7.39-7.15-9-8.72l-7.88-7.87a44.49,44.49,0,0,0-8.65-6.85c-5.87-3-12.54-7.47-15.62-10.56-1.59-1.58-3.47-2.88-4.19-2.88s-4.68-1.54-8.81-3.43c-8.18-3.73-26.86-9.25-35-10.33-2.8-.37-10.27-1.77-16.6-3.11-12.47-2.64-28-3.22-35.25-1.33-2.24.59-9.31,2-15.72,3.13-20.67,3.64-44.86,12.16-51.38,18.09-4.29,3.91-20.21,12.25-21.29,11.16-.71-.7-1.24-19.58-1.58-55.44-.58-62.07-.09-59-8.64-53.81M960.24,525.79c15.82,3.8,27.84,10.27,38.31,20.62,4.75,4.7,9.65,9.52,10.89,10.72,2.69,2.59,13.51,23.44,13.51,26,0,1,1.6,6.76,3.55,12.8,4.91,15.15,5.07,27.95.51,42.12-1.67,5.22-3,10.27-3,11.22,0,2.7-11.72,25.63-14.38,28.13-2.31,2.16-14.77,14.51-17.7,17.54-3.51,3.61-23.14,11.34-35.32,13.91-20.85,4.38-46.27,1.91-61.56-6l-11-5.65c-3.45-1.78-6.58-4-6.93-5s-4.51-5.22-9.22-9.41c-10.52-9.36-17.77-22.23-22.17-39.33-1.47-5.69-3.13-11.56-3.69-13-4.86-12.8,8.42-63.74,19-72.74,1-.88,6-5.68,11-10.68,21.51-21.37,54.56-29.32,88.25-21.24M630,851c-2.37,1.73-3.38,56-2.49,133.26l.51,43.71,8.89.29c12.05.4,13-.2,13-8.38,0-11.56.87-11.94,9.36-4.08,23.54,21.79,64.92,18.87,85.81-6.06,19.05-22.73,20.84-59.07,4.14-84-20.19-30.16-66.6-34.91-90.9-9.31-6.23,6.56-7.38,5.62-7.43-6.1-.13-27.74-1.27-58.36-2.21-59.5-1.51-1.83-16.09-1.7-18.65.17m476.22,2.37c-1.71,4.43-.82,171.54.92,173.28,2,2,19.27,1.82,20.56-.21.53-.84,1-8.6,1-17.26V993.4l11.93-11.95c15.79-15.83,12.53-17,32.85,11.92,7.45,10.63,16,22.64,19.08,26.69l5.52,7.37h12.07c11.13,0,12.08-.15,12.08-1.91,0-1.51-30.48-46.13-46.55-68.13-4.55-6.23-4.27-7.15,4.5-15,11.26-10.08,37.18-37.81,36.45-39-.35-.57-5.52-1-11.86-1H1193.5l-8.26,7.88c-4.55,4.33-17.19,16.65-28.1,27.37-22,21.61-24.87,24.14-26.81,23.4-1.49-.58-2.67-36.92-2.67-82.59,0-29.86.8-27.91-11.42-27.91-8.84,0-9,0-10,2.8m-274,48.47c-54.32,12.36-66.34,90.52-18.36,119.34,32.69,19.63,78.71,6.87,95-26.35,25.39-51.76-19.34-106-76.65-93m156.18.07c-60.73,13.62-67.1,101.27-9,123.87,45.33,17.64,91.85-13.21,91.73-60.84-.1-44.44-37.74-73.12-82.73-63M710.19,922.54c41.08,18.25,34.3,80.8-9.48,87.57-53,8.19-70.86-72.15-19.84-89.08,6.32-2.1,23.15-1.23,29.32,1.51m148.28-1.74c32.91,6.89,45.95,51.13,22.46,76.24-19.7,21.07-56,16.29-68.83-9.07-17.68-34.89,9.87-74.8,46.37-67.17m156.13-.07c40,9.23,46.19,68.9,8.89,86-38,17.37-74.85-23.14-56.59-62.16,8.25-17.62,29.2-28.09,47.7-23.82" transform="translate(-67.65 -108.45)"/><path id="path3" class="cls-3" d="M825,111.26c-1.77,1.53-5.62,4.6-8.55,6.83-14.11,10.78-52.77,52.91-52.77,57.5,0,.72-2,3.18-4.32,5.47-2.89,2.78-6.34,8.19-10.42,16.34-3.35,6.71-7.35,13.51-8.88,15.13a17.47,17.47,0,0,0-3.67,6.1c-.49,1.73-2.5,7.05-4.47,11.8A260.91,260.91,0,0,0,721,263.67c-.66,2.91-1.81,5.79-2.55,6.4-4.7,3.91-14.1,82.76-11.23,94.2,1.16,4.61,4.62-4.2,7.67-19.48a43.15,43.15,0,0,1,3.1-9.65c3.2-6.05,3.64-7.21,8.54-22.28,2.61-8.05,6-17.44,7.57-20.86a77.08,77.08,0,0,0,3.51-8.94,15.61,15.61,0,0,1,3.33-5.57c1.45-1.56,5.39-8.48,8.75-15.38s7.65-14.08,9.56-16a22.82,22.82,0,0,0,4.36-5.76c.5-1.26,3.92-6.32,7.6-11.24s6.71-9.32,6.71-9.76,4.35-5.28,9.66-10.75,9.66-10.58,9.66-11.35,1.29-2.21,2.86-3.18c4.39-2.7,19.5-16.85,19.5-18.26,0-.68,1.49-2,3.31-2.95a73.86,73.86,0,0,0,9.74-7.16,74.63,74.63,0,0,1,10.16-7.39,15,15,0,0,0,5-4C849.14,152.12,863,142,864.62,142c2.63,0,12.89-7.59,14.61-10.81,2.38-4.45,1.69-5.09-9.64-9-18.56-6.49-30.23-10.94-32.12-12.26-3.32-2.33-8.79-1.71-12.43,1.4m9.7.57c.62.75,3.08,1.91,5.47,2.59,4.43,1.25,19.3,6.42,31.49,11l6.84,2.54-2.15,2.91c-2.15,2.9-11.19,9.13-13.25,9.13-1.74,0-17.2,11.46-18.86,14-.82,1.26-2,2.29-2.58,2.29s-4.5,2.81-8.68,6.24a104.71,104.71,0,0,1-9.8,7.38c-1.21.62-6.55,5.48-11.87,10.78s-11.35,11-13.4,12.55-3.74,3.42-3.76,4.07c0,1-7.65,9.27-15.64,16.91a14.18,14.18,0,0,0-3.24,4.4c-.33,1-3.06,5.15-6.07,9.16a91.51,91.51,0,0,0-7.07,10.6c-.88,1.81-2,3.3-2.47,3.3-1.2,0-11.24,15.82-12.24,19.27-1.15,4-2.8,7-7.11,12.75a43.94,43.94,0,0,0-5.39,9.66c-.88,2.52-3.17,8.47-5.1,13.22s-4.56,11.84-5.83,15.76-3.63,9.92-5.23,13.35a97.29,97.29,0,0,0-4.95,14.74c-3.68,15.32-3.79,15.46-3.91,4.83-.22-21.11,6-65.24,10.1-71a28.45,28.45,0,0,0,3-8.17c1.84-8.5,9.77-32.71,13.21-40.3,1.68-3.71,3.06-7.26,3.06-7.89a3.65,3.65,0,0,1,1.8-2.26c1-.62,4.76-7,8.39-14.11,4.34-8.57,8.23-14.71,11.41-18,2.66-2.77,4.83-5.62,4.83-6.34,0-5.26,49.21-57.51,57.37-60.92a10.65,10.65,0,0,0,4.6-3.57c1.28-2.4,5.3-2.84,7-.76m-278.91,5.24a74.5,74.5,0,0,0-7.63,2.5l-2.54,1.11,2.54-.45c1.4-.24,5.06-1.16,8.13-2,7.46-2.13,11.09-2,14.75.45a64.08,64.08,0,0,0,6.09,3.56,30.73,30.73,0,0,1,6.73,5.31c6.71,6.94,14,13.91,19.24,18.52,2.88,2.5,5.92,5.93,6.77,7.62s4.38,5.82,7.85,9.18a79.49,79.49,0,0,1,11.32,14.64,95.13,95.13,0,0,0,9.34,13.21c2.38,2.57,4.32,5.19,4.32,5.84s2,4.76,4.5,9.16A126.24,126.24,0,0,1,654,219.62c1.22,3.28,3,6.79,4.06,7.8,4.39,4.39,15.11,37.32,19.36,59.43a43.1,43.1,0,0,0,2.72,9.11c2.17,4.25,5,28.39,5.8,48.83.67,18.17-.28,24.31-2.43,15.68-.62-2.47-2-6.78-3.07-9.58s-3.17-9.43-4.67-14.74c-7.26-25.71-14.57-45.26-17.79-47.51a4.5,4.5,0,0,1-2-2.79c0-3-15-30.81-18.45-34.29a37.25,37.25,0,0,1-6-8.57c-3.18-6.61-12.14-18.52-14.5-19.27-1-.33-2.5-2-3.24-3.8-1.66-4-12.4-16.33-15.46-17.81-1.24-.6-3.37-2.86-4.74-5s-5.75-6.65-9.73-10-10.92-9.54-15.41-13.85-9.16-8.14-10.37-8.53c-3.08-1-12.45-8.21-14.31-11-.85-1.29-3.74-3.41-6.42-4.71a79.35,79.35,0,0,1-8.44-4.79c-2-1.33-6.19-3.76-9.41-5.4-11-5.57-7.45-8.36,19.9-15.76,3.26-.87,5.71-1.81,5.44-2.08-.58-.58-19.58,4.83-26.64,7.59s-7.83,7.36-1.81,9.87a105.12,105.12,0,0,1,11.13,6.14c4,2.49,7.73,4.52,8.32,4.52s2.8,1.7,4.94,3.77c5.44,5.27,14.7,12.5,16,12.5,1.85,0,11.8,8.67,13.88,12.08a11.44,11.44,0,0,0,4.75,4.26c3.27,1.23,17.53,15,17.53,17,0,.73,1.6,2.27,3.55,3.43,3.78,2.22,15.77,15.46,15.77,17.4,0,.63,2.4,3.47,5.33,6.3,5.38,5.17,7.77,8.43,14,19.06a71.59,71.59,0,0,0,7.3,10.06c2.14,2.35,4.19,5.41,4.54,6.8s2.63,6,5.07,10.27A69.88,69.88,0,0,1,654,283.6a16,16,0,0,0,3.16,6c2.13,2.13,8,14,8,16.25a73.37,73.37,0,0,0,2.92,9.43c3.64,10.23,9.28,30.27,9.28,33a6,6,0,0,0,1.61,3.64c.89.89,2.53,5.5,3.65,10.24,2.07,8.77,3.19,10.39,4.46,6.41,2.26-7.14-3-71.52-6.13-75-.76-.85-1.92-4.49-2.57-8.08-3.64-20.22-15.17-54.79-19.8-59.43a13.67,13.67,0,0,1-3.18-5.36c-1-4.24-13.35-28.05-15.44-29.83-2.34-2-10.38-13.51-10.38-14.86,0-1.69-9.12-13-11.53-14.27s-6.77-6.72-6.77-8.31c0-.51-3.54-4.17-7.88-8.13s-9-8.39-10.42-9.84c-9.25-9.62-13.07-13.09-15.76-14.29a49.33,49.33,0,0,1-6.09-3.44c-3.51-2.38-8-2.55-15.25-.57m352.75,24.57c-8.75,3.62-20,9.47-22.43,11.67a7.43,7.43,0,0,1-3,1.89c-.52,0-4.61,2.2-9.08,4.89S863.67,166,861,167.33a49.47,49.47,0,0,0-10.16,7.42c-2.89,2.77-6.62,5.65-8.3,6.39-4.44,2-18.83,13.46-30.26,24.2-5.47,5.13-10.83,9.74-11.93,10.24a5.08,5.08,0,0,0-2.5,2.54c-.29.9-4.68,6-9.77,11.29s-9.64,10.39-10.13,11.28-3.87,5.65-7.54,10.55-6.65,9.51-6.65,10.22-1.17,2.36-2.6,3.68c-3.78,3.48-9.64,12.44-14,21.38a73.15,73.15,0,0,1-7.33,12c-1.95,2.33-3.54,4.84-3.54,5.57s-1.41,4.47-3.14,8.29-4.73,11.31-6.69,16.62l-5.55,15.1a50.42,50.42,0,0,1-3.49,7.73c-1.56,2.37-5.82,21.88-7.12,32.56-.9,7.47,1.37,6.58,5.2-2a25.66,25.66,0,0,1,4.32-6.94,10.13,10.13,0,0,0,2.66-4.28c1.38-5.49,16.28-34.26,18.49-35.71,1.29-.84,3.46-3.78,4.83-6.53,3.47-7,13-20.11,15.09-20.8a4.4,4.4,0,0,0,2.38-2.62c1.09-3.43,16.6-21.16,27.47-31.41,23.43-22.08,27.09-25.27,31.41-27.3a21,21,0,0,0,6.82-5.23c2.34-3.15,9.6-8.28,16.06-11.33a96.89,96.89,0,0,0,10.2-6.26c7-4.87,26.73-15.94,28.35-15.94,1.4,0,21.69-9.19,23.5-10.64,3.22-2.6,28-10.84,48.79-16.25,5.87-1.53,11.25-2.95,11.95-3.16,2.32-.7.62-7.56-1.87-7.56-.57,0-4.5-2.57-8.75-5.7a79.36,79.36,0,0,0-11.09-7.12,10.32,10.32,0,0,1-4.46-3.42c-2.07-3.89-21.83-15.51-25.8-15.18a55.43,55.43,0,0,0-7.25,2.61m14.58,2.54c7.82,3.74,13.64,7.76,16.53,11.43a20.93,20.93,0,0,0,6.31,4.62c5.79,2.75,20.53,13.19,20.53,14.54,0,1.19-.64,1.41-13.73,4.85-19.9,5.24-48.79,15-51.57,17.48-1,.88-5.69,3.27-10.44,5.32S878,208.18,873,210.67s-9.69,4.53-10.35,4.52-2,1-3,2.3c-2,2.46-14,10.34-18.18,11.95-3.56,1.35-13.67,9-14.39,10.84-.33.86-1.94,2.12-3.57,2.81-4.35,1.83-20,14.85-31.49,26.22-5.51,5.46-10.44,9.91-10.94,9.91s-2.21,1.81-3.78,4-6.75,8.67-11.51,14.37c-12.29,14.75-19.2,24.15-21.41,29.16-1.05,2.39-2.61,4.61-3.46,4.94-1.65.63-10.71,14.52-10.71,16.42,0,1-6.73,15.16-10.73,22.59C715,379,713.71,381,713.28,380.6c-.77-.77,3.67-21.32,5.22-24.12,2.13-3.84,3-6,5.48-13.21,7.18-21.06,14.38-38.53,17.38-42.19,2.49-3,10.16-16.45,10.16-17.76,0-1.86,7.14-12.46,9.8-14.56a24,24,0,0,0,4.87-6.66c3-5.86,12.69-18.68,21.3-28.11,3.57-3.92,8-9,9.89-11.19a177.68,177.68,0,0,1,13.92-13.21c5.79-5,12-10.58,13.75-12.33,4.7-4.65,16.83-13.59,18.42-13.59.75,0,4.26-2.76,7.79-6.13a57.68,57.68,0,0,1,11.93-8.74c3-1.43,8.43-4.39,12-6.58s7.19-4,8-4,2.66-1.11,4-2.47c2.91-2.9,11.93-7.78,19.81-10.71a57.14,57.14,0,0,0,7.11-3.07c2-1.31,1.32-1.48,9,2.18M467.66,149c-2.59,1.64-5.19,3.9-5.79,5s-3.59,3.21-6.64,4.65a86.53,86.53,0,0,0-12.25,7.7c-3.68,2.78-7.79,5.34-9.14,5.67-7.66,1.93-9,10.42-1.94,11.95,13.62,3,41.47,10.88,44.75,12.74.61.35,2.28,1.46,3.7,2.47s6.49,3.15,11.27,4.78a132,132,0,0,1,13.81,5.55c2.81,1.42,7.73,3.57,10.92,4.76s6.8,3.17,8,4.39c2.7,2.7,9.23,6.65,11,6.65.71,0,5.14,2.54,9.85,5.66a115.39,115.39,0,0,0,11.88,7.06c1.82.77,3.3,1.86,3.3,2.43,0,1.16,13.63,12.29,15.06,12.29s11.37,8.36,11.37,9.59,9.54,9.73,10.9,9.73c1.15,0,11.47,10.49,11.47,11.66,0,.51,4.06,4.84,9,9.63S628,303.82,629,305.92s4.34,6.43,7.48,9.62a58.79,58.79,0,0,1,8.26,10.57c4.3,8,11.4,19.19,12.69,20,2.64,1.61,20.88,41.65,20.88,45.83,0,1.23,5,3.64,5.8,2.83,1-1-1.51-14.91-3.13-17.41-.74-1.12-3.07-8.91-5.2-17.3s-5.39-19.36-7.26-24.39a83.36,83.36,0,0,1-3.42-10.47c0-1.88-4-9.5-6.22-12-1.06-1.15-3.06-5-4.46-8.58a110.49,110.49,0,0,0-6.61-13.33c-2.23-3.76-4.06-7.54-4.06-8.39s-1.51-3.06-3.35-4.91c-4-4.05-10.63-13.24-11.93-16.66s-9.1-13.63-10.35-13.63-4.49-3.79-6.89-8.28c-1.09-2-6.11-7.5-11.16-12.13s-9.18-9-9.18-9.58c0-1.37-12.59-12.71-14.11-12.71-.56,0-4.52-3.45-8.78-7.67s-8.86-8.1-10.22-8.62c-3-1.12-18.41-11.84-19.49-13.52-.43-.66-3.29-2.43-6.36-3.95s-7.65-3.83-10.17-5.15-8.41-4.38-13.11-6.8-9.39-5.25-10.42-6.28a6.29,6.29,0,0,0-3.44-1.88c-.86,0-3.82-1.15-6.58-2.55-7.2-3.65-14.36-3.5-20.56.44m22.23,1.28c3.84,1.79,7.43,3.79,8,4.46.91,1.08,8.46,5,21.86,11.41,7.81,3.74,15.64,8.18,18.3,10.4,4.54,3.8,18.08,13.19,19,13.19,1.63,0,9.44,6.23,9.44,7.54,0,1.46,6.18,6.64,10.69,9,1.68.88,5.44,4.26,8.35,7.53s6.92,7.54,8.93,9.5c11.1,10.85,15.75,15.86,15.75,17,0,.7,3.14,4.46,7,8.37s7.86,8.84,8.91,11c2.71,5.4,10.44,16.77,12.66,18.59,2,1.65,12.08,20.65,15.32,28.94a29.08,29.08,0,0,0,4.47,7.71c3.73,3.92,15,37.68,18.76,56.34a43.92,43.92,0,0,0,3.15,9.64c3,5.57,2.29,13.07-.83,8.94a104.21,104.21,0,0,1-4.74-10.93c-4.81-12.32-14.85-32.45-17.2-34.51-2.18-1.91-7.85-10.83-11.47-18a57.94,57.94,0,0,0-8.6-11.36c-3.28-3.36-6.74-7.63-7.7-9.48-2.51-4.86-9.6-13-12.73-14.62-1.48-.76-4.38-3.94-6.46-7.07a44.27,44.27,0,0,0-8.89-9.44,181.42,181.42,0,0,1-14.59-13.16c-5.21-5.17-10-9.4-10.71-9.4-1.6,0-11.69-7.61-15.79-11.91-1.75-1.84-3.71-3.34-4.37-3.34s-4.5-2.25-8.56-5a118.48,118.48,0,0,0-14.19-8.07c-3.74-1.69-6.8-3.55-6.8-4.12,0-1.12-8.11-6.2-9.91-6.2-.6,0-4.67-1.68-9.05-3.73s-12.24-5.22-17.46-7-10-4-10.67-4.85c-1.69-2.2-30.08-11-45.31-14-8.29-1.64-7.92-7,.75-10.63a59.74,59.74,0,0,0,9.66-6.26,88.86,88.86,0,0,1,12.07-7.74c3.19-1.6,6.05-3.66,6.35-4.58,2.32-7.15,15.58-9.15,26.61-4M994.48,200c-2,.45-7.21,1.55-11.69,2.45-25.33,5.07-41.65,8.74-49.36,11.1a76.55,76.55,0,0,1-10.34,2.67,5.49,5.49,0,0,0-3.22,1.56c-1.82,1.82-10.9,5.94-15.36,7a100.57,100.57,0,0,0-11.69,4.62c-4.75,2.15-10.69,4.76-13.2,5.79a34.05,34.05,0,0,0-7.73,4.66,34.67,34.67,0,0,1-7.63,4.7c-2.46,1.06-8.36,4.28-13.12,7.14s-9.13,5.22-9.72,5.22-3.66,2.43-6.79,5.39a54.7,54.7,0,0,1-9.59,7.37c-5.95,3-14.89,10-18,14.11a23.52,23.52,0,0,1-6.54,5.59c-5,2.57-34,32.27-36.32,37.11-1,2.09-2.8,4.17-4,4.64-2.3.87-11.16,12.2-14.15,18.09a40.71,40.71,0,0,1-6,7.75,50.74,50.74,0,0,0-7.4,10.38c-1.68,3.28-5.19,9.67-7.8,14.2s-4.75,8.7-4.75,9.28a4.22,4.22,0,0,1-1.59,2.36c-2,1.67-3.66,5.63-8.65,20.65-6,18-5.4,19.67,3.29,9.8,3-3.36,6.14-6.35,7.08-6.65s2.42-2,3.31-3.81c1.32-2.7,9.95-12.13,18.56-20.3,1-1,4.86-4.78,8.49-8.44s8-7.38,9.66-8.27,6-4.65,9.66-8.34,8-7.38,9.65-8.2c5.27-2.57,14.61-9.33,16.16-11.7a15.4,15.4,0,0,1,5.37-4.1c2.13-1,7.06-3.89,11-6.38a104.05,104.05,0,0,1,11.56-6.46,19.33,19.33,0,0,0,6.31-4.23c1-1.27,4.26-3.38,7.25-4.69s9.78-4.35,15.09-6.76,11.94-5.14,14.74-6.09a29.81,29.81,0,0,0,8-4.14,16.37,16.37,0,0,1,5.59-3c1.49-.34,5.89-1.74,9.77-3.1a349.74,349.74,0,0,1,37.17-10.13c6.43-1.43,12.71-3.26,14-4.05,6.9-4.39,58.77-10.55,88.88-10.56,20.48,0,22.18-.7,16.61-6.71-1.4-1.51-2.54-3.37-2.54-4.13,0-2-14.3-29.83-15.33-29.83s-8.69-10.22-10.33-13.94c-2.38-5.38-9.91-14.72-14.23-17.65-4.64-3.15-4.56-3.13-9.93-1.91m6.66,2.07a14,14,0,0,0,3.53,2.83c2.81,1.71,11.16,11.94,11.16,13.67,0,1.55,9,14.3,12.18,17.3,1.69,1.59,3.07,3.46,3.07,4.16s2.29,5.35,5.08,10.33,5.09,9.75,5.1,10.59,1.12,3.46,2.47,5.82c2.81,4.91,2.29,5.66-3.28,4.77-4.08-.65-33.08.84-52.07,2.68-21.86,2.12-48.72,6.7-50.93,8.69-.9.8-5,2.16-9.15,3C908.27,290,874,301.13,869.42,305c-1.75,1.47-3.92,2.68-4.82,2.68s-6.24,2.09-11.87,4.64l-16.18,7.36a42,42,0,0,0-9.48,6c-1.94,1.82-4.1,3.32-4.82,3.32s-5.37,2.55-10.34,5.68-10.43,6.27-12.1,7-5.48,3.66-8.46,6.53a47.61,47.61,0,0,1-9.43,7.17c-5.5,2.65-16.89,12-17.51,14.42-.28,1.07-2.15,2.63-4.16,3.47-4.4,1.83-39.23,36-39.23,38.48a3.78,3.78,0,0,1-2.29,2.75c-1.25.59-3.83,3.1-5.73,5.6s-3.65,4.32-3.91,4.06C707.9,423,717.93,396.7,719.85,396c.5-.19,2.55-3.78,4.56-8,6.92-14.45,12.91-24.92,15.72-27.45a46.76,46.76,0,0,0,9.9-13.62c1-2.18,4.91-7,8.64-10.67s7.49-8.09,8.38-9.76,4.56-6,8.19-9.66l18.34-18.4c3.84-3.86,7.41-7,7.93-7,1.49,0,9-6.3,9-7.55s9.63-9,12.4-10,16.06-11,16.06-12c0-.53,1.27-1.51,2.8-2.17s6.36-3.42,10.71-6.11a142.78,142.78,0,0,1,13.72-7.46,36.62,36.62,0,0,0,8.36-5c1.39-1.34,5.74-3.77,9.65-5.42,16.78-7,19.86-8.3,30-12.4,15.47-6.26,27-10.1,35.08-11.7,3.91-.78,11.46-2.38,16.77-3.57,31-6.93,34.19-7.48,35.12-6M390,205c-3,1.2-8,7.55-11,13.8a31.67,31.67,0,0,1-6.46,8.69,31.85,31.85,0,0,0-6.31,8c-1.28,2.52-2.83,5.49-3.44,6.61C358,251,354,259.13,354,260.18c0,.69-1.25,2.46-2.79,3.93-11.79,11.27-9.24,13.45,16.63,14.22,26.91.79,51.84,3.4,57.62,6a22.19,22.19,0,0,0,7,2c2.46,0,20.42,3.5,39.35,7.62,4.13.9,7.72,1.42,8,1.15s-1.28-.8-3.44-1.18-6.43-1.34-9.51-2.13c-8.56-2.19-30.68-6.45-33.57-6.45a9.47,9.47,0,0,1-4.57-1.4c-4.21-2.93-28.14-5.58-56.9-6.32-29.62-.75-29.89-.88-21.35-10.37,2.51-2.8,4.57-5.73,4.57-6.51s1.68-4.61,3.73-8.49,5-9.59,6.49-12.66A59.43,59.43,0,0,1,373.73,228c3.13-3.3,6-7,6.35-8.13,3.27-10.42,10.55-15.78,19-14,2.9.61,8.71,1.64,12.9,2.29,8,1.23,21.63,4.11,32,6.73,3.36.85,7.25,1.79,8.64,2.09a10.94,10.94,0,0,1,4.07,1.86c2,1.74,11.18,5.3,17,6.6,4.19.94,8.08,2.31,26.57,9.37a40.38,40.38,0,0,1,9.5,5.48c2.24,1.87,4.76,3.4,5.61,3.4s5.44,1.84,10.23,4.08,8.85,3.92,9,3.73c.51-.51-17.23-8.82-18.82-8.82-.74,0-3.1-1.49-5.23-3.31a39.54,39.54,0,0,0-9.82-5.52L485.18,228c-5.32-2-10.4-3.62-11.31-3.62-2.21,0-12.17-4.07-14.26-5.83-2.42-2-26.57-7.92-45.09-11-5-.83-11.36-2-14-2.52-5.76-1.19-7.55-1.19-10.45,0M541.65,255.4a49.2,49.2,0,0,1,8.73,6.55,21.75,21.75,0,0,0,6.45,4.5,73.3,73.3,0,0,1,10.84,6.72,79.18,79.18,0,0,0,8.8,5.8c.95.37,4.5,3.43,7.89,6.81A90.63,90.63,0,0,0,595,294.93c5.62,3.74,11.11,8.75,11.12,10.16,0,.59,4.14,4.69,9.2,9.11s9.91,9.42,10.79,11.12c2.36,4.56,10.69,14.52,13.14,15.71,1.18.57,3,2.8,4.1,5s5.15,8.66,9.05,14.49c13,19.44,15,22.87,21,36.16,3.31,7.27,6.37,13.44,6.8,13.73,1.23.82,7.55,19.29,6.84,20-.93.93-14.73-13.75-16.93-18a33.09,33.09,0,0,0-6.53-7.63c-12.17-10.48-14.82-13-14.82-14.25,0-1.52-9.1-9.58-10.83-9.59-.64,0-5-3.89-9.79-8.63s-9.7-9-11-9.56-5.81-3.5-10-6.63-8-5.68-8.65-5.68-2.29-1.26-3.75-2.8c-2.74-2.88-16.38-11.44-18.22-11.44-1.48,0-15.35-8-16.65-9.57-1.13-1.38-23-11.77-24.82-11.77a76.34,76.34,0,0,1-9.31-3.56c-4.58-2-9.13-3.56-10.12-3.56a8.92,8.92,0,0,1-4.23-1.88,38,38,0,0,0-4.59-3c-2.67-1.39-24.9-7.5-25.43-7-.2.21,2.49,1.19,6,2.19,14.74,4.17,19.68,5.9,21.42,7.45,1,.91,5.35,2.89,9.66,4.41,15.53,5.47,21.26,7.73,28.88,11.39A72.86,72.86,0,0,0,556,325c.43,0,1.95,1.1,3.38,2.45s7.86,5.15,14.29,8.46C587.38,343,594,347,594,348.34c0,.54,1.78,1.84,3.95,2.89a75.79,75.79,0,0,1,9.91,6.44A127.33,127.33,0,0,0,618.66,365c2.69,1.55,5.21,3.63,5.59,4.62.82,2.09,9,9.36,14.41,12.76a32.38,32.38,0,0,1,6.68,6.1c3.46,4.35,9,9.92,17.71,17.72,3.37,3,6.13,5.9,6.13,6.41,0,1.43,8.47,11.81,10.16,12.45.84.32,2.87,2.4,4.52,4.63,5.59,7.57,6.42,2.5,1.58-9.68-1.68-4.22-3.05-8.29-3.05-9a4,4,0,0,0-1.43-2.56c-1.54-1.28-8.73-15.82-8.73-17.66,0-1.45-12.17-22.28-13.78-23.59-1.78-1.44-12.65-18.3-12.65-19.62,0-.6-2.94-4.1-6.52-7.77a110.53,110.53,0,0,1-10.11-12c-3.78-5.6-6.77-8.78-15.77-16.77-3-2.65-5.85-5.86-6.33-7.11s-2.72-3.54-5-5.09c-7.3-5-18.78-14.75-19.52-16.64-.39-1-2.63-2.81-5-4a107.62,107.62,0,0,1-11-7.05,71.33,71.33,0,0,0-10.54-6.47c-2.11-.87-4.11-2.31-4.44-3.18-.59-1.55-13.3-9.68-15.12-9.68-.49,0,1.82,1.63,5.14,3.62m-194.33,47c-3.09,2.05-3.3,9.56-3.9,134.94-1.43,302.73-1.3,356.31.9,357.91,2.36,1.73,93.43,2.15,96.12.45,1.19-.75,1.6-3.75,1.87-13.7.18-7,.47-12.75.64-12.75,1,0,12.73,7.44,15.08,9.6,5.92,5.44,27.68,14.12,44.93,17.93,5.6,1.23,10.65,2.61,11.24,3.07,4.55,3.52,52.49,4,57.69.63a10.67,10.67,0,0,1,4.46-1.75c11.06,0,49.11-13.66,55.91-20.07a30.11,30.11,0,0,1,7.24-4.91,71.51,71.51,0,0,0,10.83-6.89,74.54,74.54,0,0,1,8.93-6,10,10,0,0,0,3.57-3.49c1-1.56,5.77-6.95,10.62-12,9.39-9.72,18.72-22.81,22.82-32,1.37-3.07,3.17-6,4-6.43,4.07-2.28,14.45-35,17.66-55.6a64.32,64.32,0,0,1,2.55-10.13c2.71-7.28,2.39-44.9-.45-53.79a54.64,54.64,0,0,1-2.07-7.75c0-2.26-3.28-15.86-3.71-15.43-.61.61,3.49,21.69,5.27,27.12,2.11,6.44,2.05,41.44-.08,47.28a68.81,68.81,0,0,0-2.5,11.18c-3.29,23-11.86,49.67-18.42,57.2a18,18,0,0,0-3.54,6.1c-1.15,4.94-13.49,22.19-23.08,32.28-5.14,5.4-9.73,10.64-10.21,11.64a7.22,7.22,0,0,1-3.09,2.85,83.55,83.55,0,0,0-9.29,6.35,74.33,74.33,0,0,1-11.13,7.12,34.59,34.59,0,0,0-8,5.4,30.8,30.8,0,0,1-8.64,5.35c-2.62,1-7.34,2.81-10.49,4.09-7.46,3.05-18.57,6.13-29.35,8.15a84.73,84.73,0,0,0-12.68,3.28c-5.05,2.08-46,2.49-48.41.48a15.43,15.43,0,0,0-5.5-1.89c-23.61-4.12-50-13.7-56.41-20.46-1.77-1.87-3.84-3.41-4.59-3.41s-3.46-1.6-6-3.56c-6.45-4.92-6.3-5.12-7,9.81-.42,9.41-1,13.62-1.94,14.22-2.73,1.73-92.93,1.06-94.4-.7-1.9-2.29-.66-482.65,1.26-487,2.08-4.72,8.53-6,17.09-3.36,3.43,1.05,10.06,1.78,36.08,3.94,13.45,1.13,36.61,3.91,39.4,4.74,1.65.49,1.79,3.43,1.92,41.38.09,22.47.28,56.86.42,76.43l.27,35.58,3.2-.27c4.34-.36,11.61-4.25,18.27-9.79,3-2.53,6.7-5,8.13-5.56s6.72-2.56,11.75-4.51c11-4.26,20.44-6.63,39.58-9.95,8.75-1.52,37.17-1.49,46.2.05,3.7.63,9.48,1.6,12.83,2.15,20,3.3,49,13.35,50.63,17.56.31.8,3,2.63,6.06,4.06a86,86,0,0,1,12.71,8.24c4,3.11,7.69,5.64,8.27,5.64s1.86,1.26,2.83,2.8c1.59,2.53,11.27,13.17,17.52,19.25a24.87,24.87,0,0,1,3.56,4.33c.6,1.07,3.27,5.16,5.92,9.09a103.2,103.2,0,0,1,7.32,12.78c1.36,3.1,3,5.63,3.61,5.63,1.76,0,10.66,22.45,13.5,34.06.46,1.87.51,1.88.62.11.34-5.52-10.19-32-14.61-36.79-1.41-1.52-2.56-3.5-2.56-4.42,0-3.07-14.14-22.87-23.28-32.61-5-5.31-10.05-10.91-11.26-12.45s-2.65-2.79-3.2-2.79-4.08-2.5-7.85-5.54a64.21,64.21,0,0,0-11.52-7.54c-2.56-1.1-5.29-2.89-6-4-4.05-5.75-44.5-19.35-58-19.5a27,27,0,0,1-8.14-1.8c-5.65-2.29-41.1-2.67-43.76-.46-.89.73-4.27,1.76-7.53,2.27s-7.74,1.36-10,1.87-6.39,1.4-9.24,2c-4.67,1-22.64,7.6-28.79,10.64a46.74,46.74,0,0,0-7.12,5.36c-4.44,3.94-11.37,7.78-15.93,8.82l-2.12.48-.66-75.8c-.53-59.79-.94-76.08-2-77.11-1.35-1.36-10.3-2.59-32.26-4.43-7-.58-15.9-1.72-19.82-2.52-12.77-2.63-38.36-4.36-40.77-2.75M838.06,352a55.29,55.29,0,0,0-8.13,4.91,65.92,65.92,0,0,1-8.54,5.21,36.13,36.13,0,0,0-8.14,6.05c-4.87,4.84-10.14,8.7-11.88,8.7-2.76,0-18.34,12.12-18.34,14.27,0,.54-.62,1-1.38,1-2,0-21.5,18.57-27.81,26.43l-5.31,6.62-.29,183.49c-.15,100.92.08,184.29.52,185.27,1.16,2.59,92.11,2.76,94.69.18,1.25-1.25,1.6-3.94,1.6-12.54,0-6,.26-11.2.58-11.52.69-.7,13.65,7.38,13.65,8.5,0,3,32,14.92,50,18.68,6.31,1.32,13.54,3,16.05,3.67,7.29,2,39.14,1.76,44.8-.35a99.63,99.63,0,0,1,13.15-3.27c11.8-2.17,28-7.07,36.88-11.14,4-1.86,8.28-3.67,9.42-4s4-2.36,6.29-4.46a53,53,0,0,1,9.11-6.35c6.69-3.48,17.09-11.81,18.44-14.77.61-1.34,2.91-3.57,5.11-5,4.54-2.87,13.14-12.41,15-16.61a17.61,17.61,0,0,1,3.35-4.83c1.18-1.12,3.1-3,4.26-4.07,2.37-2.26,12.7-23.2,16.23-32.88,1.25-3.44,2.61-6.25,3-6.25.94,0,3.66-7.2,5-13.22.56-2.52,1.73-7.59,2.6-11.28,8.23-35,3.74-104.77-7.58-117.82a8.14,8.14,0,0,1-2-3.86c0-.82-2.06-5.85-4.57-11.16s-4.58-10.06-4.58-10.56c0-1.91-8.31-14-10.71-15.53a17.21,17.21,0,0,1-4.57-5.94c-3.54-7.41-28.3-31.42-36.74-35.63a52.22,52.22,0,0,1-10.05-6.84c-2.36-2.18-5.26-4.26-6.44-4.61s-5.73-2.2-10.11-4.11c-9-3.89-17.56-6.46-33.23-9.91-5.89-1.29-11.84-3-13.22-3.77-4-2.28-48-2-52.83.29a64,64,0,0,1-11.69,3.33c-15.7,3.1-47.52,15.66-48.93,19.31-.57,1.51-9.07,6.3-12.07,6.8-2,.35-2-.35-2.54-54.84-.57-62.29-.1-59-8-55.58m5.1,38.84c.07,21.11.12,45.93.09,55.15s.36,17.82.85,19.09l.9,2.32,4.85-2.52c4.55-2.36,9.91-5.66,19.21-11.85a63,63,0,0,1,10-5c3.36-1.3,8.26-3.21,10.89-4.26,5.92-2.35,23.6-6.51,31.81-7.47a33.85,33.85,0,0,0,8.84-2.14c3.29-1.7,27.61-2,31.84-.4a145.77,145.77,0,0,0,15.06,3.13c16,2.71,32.78,7.37,42.25,11.72,4.13,1.89,8.18,3.44,9,3.44s2.7,1.3,4.18,2.88c3,3.18,9.89,7.85,15.4,10.42,2,.91,5.85,4,8.64,6.83,7.63,7.76,10.21,10.32,16.9,16.75,3.36,3.23,6.72,7.35,7.48,9.15s3.63,5.6,6.4,8.45c5.4,5.53,12.38,18.75,17.6,33.31,1.58,4.39,3.48,8.51,4.23,9.15,10.17,8.66,13.45,81,5.28,116.35-2.82,12.21-3.57,14.43-6,18a23.56,23.56,0,0,0-3.1,6.83c-.61,2.91-5.53,14.06-12,27.12a49.6,49.6,0,0,1-7.57,10c-2.93,3-5.34,6.08-5.34,6.82,0,1.76-10,13.72-11.47,13.72-.63,0-5.05,4-9.84,9s-9.85,9.37-11.24,9.81c-3.3,1-17.26,10.46-17.26,11.65,0,.5-1,1.2-2.29,1.55s-5.72,2.2-9.91,4.11c-23.65,10.77-65.4,17.36-87.93,13.89L912.14,795c-15.9-2.44-47-13.45-49.81-17.64a109,109,0,0,0-9.11-6.59C841.78,763,841.64,763.09,841,780l-.51,13.11h-90l0-182.83c0-135.42.35-183.39,1.21-185,2.1-3.94,7.25-9.81,8.61-9.81.72,0,2-1.36,2.88-3,2.06-4,12.13-13.72,17.51-16.93,2.35-1.41,4.53-3.36,4.84-4.33.71-2.27,11.5-10.07,19.16-13.86a40.84,40.84,0,0,0,9.65-6.86,36.72,36.72,0,0,1,7.82-6A111.93,111.93,0,0,0,832.34,358c5.68-4,8-5.3,9.91-5.5.42,0,.83,17.19.91,38.29m82.19,132.47c-21,1.54-39.13,9.63-53.36,23.77-5,5-10,9.8-11,10.68-11.38,9.71-22.3,54-18.09,73.38,6.07,28,11.94,40.12,25,51.72,4.71,4.19,8.86,8.43,9.22,9.41s3.48,3.22,6.93,5c14.14,7.18,16.58,8.31,19.5,9.06,1.68.43,5.79,1.57,9.15,2.53,20.49,5.87,68.83-2.52,79.31-13.77l7.79-8.39c3.5-3.77,6.87-6.86,7.48-6.86,2.7,0,14.72-22.54,17.09-32.07.83-3.33,2.31-8.57,3.3-11.64,3.58-11.16,3.15-26.71-1.11-40.48-2-6.53-4.19-13.64-4.83-15.78a62.52,62.52,0,0,0-5-10.54c-2.13-3.64-3.87-7-3.87-7.57,0-1.59-4.37-7-5.67-7-.67,0-4.82-3.79-9.21-8.42-16.11-17-42.2-25.27-72.55-23m-409.17,2c-12.79,1.9-36.18,11.66-37.75,15.75-.27.7-2.75,2.74-5.52,4.53-5.35,3.47-13.59,12.79-15.78,17.85a20.94,20.94,0,0,1-4.29,5.81c-8.12,7.51-14.57,37.56-12.49,58.2C442,644,449,665.61,453.27,667.24c.82.31,2.12,2.09,2.9,4,2.05,4.9,17,20.09,25.16,25.49,31.42,20.89,86.51,19,110.08-3.8,2.79-2.7,7.91-7.63,11.38-11a45.66,45.66,0,0,0,9.62-12.87c1.83-3.74,3.93-7,4.67-7.33,2-.76,4.81-7,6.3-14,.72-3.36,2-8.62,2.77-11.69,2-7.74,1.38-32.76-1.06-41.18-1-3.35-2.13-7.7-2.56-9.65-1-4.33-3.9-10.17-5.13-10.17-.91,0-5.73-7.55-7.8-12.2-1.83-4.12-8.32-11.29-12.91-14.26a50.82,50.82,0,0,1-8-6.76c-6.1-6.57-34.24-18.12-37.12-15.23-.3.3,1.22.82,3.37,1.16,11.71,1.86,26.47,8.57,33.29,15.14a71.76,71.76,0,0,0,8.87,7.32c3.54,2.23,11.06,10.46,11.06,12.1,0,1.39,7.46,13.22,8.89,14.08s3,4.1,4.38,9.33c4.66,17.1,5,19.45,5,31.56,0,7.7-.6,15-1.55,18.93-4.42,18.38-5.6,21.85-8.11,24-1.25,1.08-3.56,4.65-5.14,7.94-1.93,4-5.39,8.41-10.56,13.4-4.22,4.09-8.14,7.9-8.7,8.49-5.82,6-8.07,7.72-14.23,10.57-33.86,15.65-78.65,11.48-102.49-9.55-8.56-7.55-16.44-16.29-18.12-20.09-1-2.34-2.56-4.52-3.37-4.83-7.22-2.77-15-38.1-12.82-57.85,1.88-16.62,8.65-37.16,12.78-38.74.9-.35,2.55-2.71,3.68-5.27,2.21-5,14.49-18.76,16.73-18.76.75,0,3.12-1.77,5.27-3.94,10-10.14,28.38-15.66,52.52-15.79,10-.05,16.89-.38,15.25-.73-4.09-.89-25.22-.8-31.44.12m442.71,2.53c11.16,2.59,29.85,10.87,31.05,13.74.35.84,4.91,5.42,10.13,10.17,10.07,9.17,18.33,22.15,20.83,32.73.56,2.41,2,7.81,3.1,12,3.49,12.87,3,32.85-1.28,48.8-2.64,9.91-13.57,31.39-16.55,32.52-1.2.46-5.59,4.47-9.74,8.89-7.77,8.31-22,16.52-32.36,18.63-19.91,4.06-21.18,4.21-33.12,3.69-18.12-.77-45.74-10.08-50.69-17.09-.64-.9-5.19-5.31-10.11-9.81C843,657.22,836.58,603.79,856.69,569.8a69.47,69.47,0,0,0,4.06-7.62c.36-1,4.71-5.53,9.67-10s9.3-8.91,9.66-9.86a4.59,4.59,0,0,1,2.59-2.35,80.11,80.11,0,0,0,8.92-4.65c16.73-9.68,44.7-12.83,67.3-7.56M627.94,848.94c-3,2.16-4.69,176-1.8,180.78.68,1.12,24.52.92,25.22-.22.33-.53.88-4,1.23-7.62.73-7.92.1-7.76,7.81-1.93,50.28,38.06,116.72-11.29,100.19-74.42-11.73-44.83-64.39-63.18-99.68-34.74-8.26,6.65-8,7.73-8-29.29,0-23.18-.34-31.89-1.24-32.79-1.82-1.82-21.19-1.64-23.75.23m476.92.15c-2,2-2.49,175.8-.55,179.42,1.27,2.38,22.9,3,25.17.75.86-.85,1.23-6.29,1.23-17.94V994.6l10.86-11c6-6.06,11.61-11,12.52-11,1.84,0,2.19.43,15.49,19.46,13.43,19.2,26.34,36.82,27.63,37.72,2.86,2,29.57.35,29.51-1.81,0-1.72-26.11-40-45.92-67.5-6.92-9.6-8.54-6.64,18.27-33.46,28.33-28.35,28.12-27.57,7.69-27.6-14.57,0-12-1.77-44.35,29.87-15.81,15.43-29.39,28.07-30.18,28.07-1.22,0-1.48-8.12-1.74-53.46-.28-51.55-.36-53.5-2.27-54.89-2.93-2.14-21.19-2-23.36.15M650.08,863.51c.12,7.68.24,17.18.28,21.09.35,39.86.33,39.78,7.91,31.8,24.3-25.6,70.71-20.85,90.9,9.31,16.7,24.93,14.91,61.27-4.14,84-20.9,24.94-63.07,27.84-86.06,5.91-8.2-7.82-8.84-7.43-9.36,5.71l-.26,6.61H628l-.51-43.71c-.8-69.38.16-132.52,2-133.71.84-.53,5.76-1,10.93-1l9.4,0,.22,14m477.58,13.72c0,46.8,1.16,83.23,2.67,83.81,1.93.74,3.44-.62,34.55-31l28.3-27.64h26.16l-16,16.8c-8.82,9.25-19.39,19.81-23.48,23.48-8.72,7.8-8.84,8.44-3.08,16.28,2.41,3.28,10.79,15.11,18.62,26.29s17.53,25,21.55,30.72,7.3,10.63,7.3,10.93-5.89.54-13.09.54h-13.09l-5.52-7.37c-3-4-11.63-16.06-19.08-26.69-20.32-28.93-17.06-27.75-32.85-11.92l-11.93,11.95v33.88l-5.59.7a52.72,52.72,0,0,1-11,0l-5.44-.68-.66-16.88c-.88-22.15-.87-158.34,0-159.22.37-.37,5.4-.68,11.18-.68h10.5v26.69M70.5,859.07c-.86,1-1.16,21.88-1.16,78.53,0,51.21-.36,79-1.09,82.84-.82,4.25-.8,6.28.08,7.93l1.19,2.21,51.53-.32,51.53-.32,8.21-2.77c40.51-13.66,48.54-63.74,13.51-84.2-8-4.64-8.16-5.09-3.82-8.27,17.18-12.6,20.17-42.87,6-60.76-5-6.36-19.65-14.36-25.92-14.19-1.13,0,.49.87,3.6,1.86,26.31,8.42,37.93,34.36,26.1,58.29C196.73,927,188,937,185.17,937c-2.36,0-.34,1.88,5.44,5,33.45,18.4,32.72,63-1.32,80.35-12.55,6.39-12.88,6.43-68.78,6.85l-51.05.38-.65-2.59a7.6,7.6,0,0,1,.22-4.39c.48-1,1.1-38.14,1.38-82.6l.51-80.81h48.5c26.68,0,47.73-.32,46.77-.7-3.74-1.48-94.43-.93-95.69.58M535,869.55c-3.51,1.25-4.07,3.61-4.07,17.23,0,11.76-.22,13.61-1.78,14.51s-1.59,1-.11,1.07c2.53,0,2.91-2.05,2.91-16.26,0-16.07.14-16.24,12.85-16.24,10.39,0,11.5.42,11.7,4.43.15,3.16.15,3.16.58.34.74-4.93-1-5.8-11.28-5.71-5.1.05-10,.33-10.8.63m22.58,21.32-.22,10.34,3.12.69c1.72.37,3.34.47,3.6.21s-.9-.74-2.58-1.08l-3-.61-.33-9.94-.33-10-.21,10.34m-460-7.69c-2,1.15-2.72,42.57-.79,45.64,2.83,4.48,59.23,2.09,69.27-2.93,17.41-8.69,14.8-34.11-4.25-41.46-5.31-2-60.94-3.14-64.23-1.25m65.83,3.33c16.65,7.85,17.94,30.31,2.2,38.45-7.76,4-61.46,7.33-66.37,4.1-1.1-.72-2.07-23.93-1.6-38.62l.2-6.35H128.1c29.65,0,30.34.06,35.33,2.41m671,12.41c-68.55,15.34-71.49,114-3.92,131.66,56.41,14.78,104.84-39.83,82.44-92.95-12.18-28.9-46.58-45.86-78.52-38.71m157.17-.15c-37.48,7.13-60.15,40.58-53.82,79.38,11.36,69.51,114.8,73.8,133.93,5.55,13.92-49.69-28.56-94.73-80.11-84.93m-697.34.42c-1.29.36,3.29.68,10.17.7,8.2,0,11.1-.21,8.43-.7-4.94-.91-15.39-.91-18.6,0m141.36.9a108.54,108.54,0,0,0,11.69,0c3.21-.2.58-.36-5.85-.36s-9.06.16-5.84.36m853.93,0a108.54,108.54,0,0,0,11.69,0c3.21-.2.58-.36-5.85-.36s-9.06.16-5.84.36M285.42,901.37c-2.6,1.12.08,1.12,3.55,0,2-.65,2.15-.82.51-.84a11.74,11.74,0,0,0-4.06.84m33.12-.65a18.55,18.55,0,0,0,4,1c2.5.45,3.11.35,2-.35-1.39-.91-7-1.53-6-.67m104.12.65-2,.88,2,0a19.48,19.48,0,0,0,4.57-.85l2.54-.81-2.54,0a13.31,13.31,0,0,0-4.57.84m37.1,0a18.35,18.35,0,0,0,4.57.82c1.61,0,1.51-.17-.5-.82a18.77,18.77,0,0,0-4.58-.81c-1.61,0-1.5.17.51.81m413.42,2.35c44.44,15.64,57.55,73.33,24.29,106.86-21.43,21.61-57.63,26.19-83.63,10.57-48-28.82-36-107,18.36-119.34,10.21-2.32,31.84-1.31,41,1.91m155.7,0c57.48,20.24,56.91,104.87-.84,122.82-60.22,18.71-108.71-36.38-81.28-92.35,13.54-27.63,50.86-41.48,82.12-30.47m247.7-2.32-2,.88,2,0a19.47,19.47,0,0,0,4.58-.85l2.54-.81-2.54,0a13.42,13.42,0,0,0-4.58.84m37.11,0a18.35,18.35,0,0,0,4.58.82c1.61,0,1.5-.17-.51-.82a18.77,18.77,0,0,0-4.58-.81c-1.61,0-1.5.17.51.81m-800.31,1.1a4.1,4.1,0,0,0-1.76,3.27c0,2.15.07,2.14,1.29-.3,1-2,2.29-2.66,6.34-3.15l5.06-.6-4.57-.12c-2.52-.08-5.38.33-6.36.9m67.35-.35c12.95.38,13.22.62,13.2,11.39,0,11.57,1,11.06-22.14,11.18l-14.53.07.3,36.52c.34,40.8.05,39.2,7.91,44.55,4.51,3.06,8.41,2.88,16.12-.76,8.69-4.12,8.47-4.21,12.83,5.56,4.63,10.39,4.57,10.58-4.45,15.09-20.67,10.34-45.12,6-52.88-9.38-4.78-9.46-5.15-13.16-5.15-50.76,0-43.19.58-40.82-10.08-40.82-8.6,0-9-.21-10.4-5.51-.75-2.81-.79-2.72-.38.85.58,5.11,1.55,5.64,10.38,5.66,9.59,0,8.87-3.09,9.5,41.18.61,42.79.92,45.07,7.4,53.58,10.57,13.89,37.23,16,55.66,4.33,5.6-3.54,5.74-4.49,2-13.47-4.92-11.77-5.93-12.36-13.56-7.89-8.91,5.22-17.21,3.87-21.49-3.51-2-3.36-2.09-5.5-2.38-38.88l-.3-35.33H575c20.52,0,20,.34,20-11.83,0-12.75.15-12.61-13.51-12.35l-11.4.21,10.67.32m-307,3.93c-25.07,13.78-34.57,30.68-34.57,61.47,0,17.47.9,21.67,7.2,33.47,18.67,35,75.47,43.24,105.86,15.29l6.35-5.85-3-4.27c-9.57-13.82-11.11-14.61-17.52-9.06-21.57,18.68-56,13.29-67.88-10.63-4.65-9.32-8.91-8.46,46-9.28,57.14-.84,51.58.79,50.63-14.82-1.7-27.86-15-49.91-35.43-58.75-6.12-2.65-4.68-1,2.11,2.36,12.76,6.38,22.95,18.72,28.27,34.23,2.74,8,5.26,28.06,4.11,32.66l-.68,2.71-27.68.26c-15.23.14-37.15.25-48.72.25-25.09,0-24.66-.19-20.42,8.87,12.19,26,45.51,32.86,69.13,14.14,6.92-5.48,7.12-5.44,13.82,3s6.6,8.61-1.58,15.14c-32.25,25.74-86.86,16-103.23-18.37-5.85-12.27-6.29-14.49-6.31-31.46,0-29.47,11.13-49.08,34.55-60.74,4.75-2.37,7.95-4.3,7.12-4.3s-4.5,1.65-8.13,3.65m194.67-2.64c3,1.3,5.58,1.3,3.56,0a7.36,7.36,0,0,0-3.56-.93l-2,0,2,.88m853.93,0c3,1.3,5.58,1.3,3.56,0a7.36,7.36,0,0,0-3.56-.93l-2,0,2,.88m-914,3.63c-18.6,12.32-21.41,40.31-5.49,54.69,7.12,6.44,10.27,7.66,43.72,17,16.78,4.7,23.43,11.41,20.29,20.47-4.73,13.7-33.72,13.49-56.71-.42-10.78-6.51-11.75-6.31-18,3.66-7,11.24-4.47,15.2,14.62,22.74,51.27,20.27,98.87-3.58,87.19-43.68-2.41-8.28-15-22.46-17.59-19.85-.29.29.79,1.22,2.41,2,17.42,9,20.78,37.29,6.29,53-16.27,17.65-52,19.88-82.75,5.16-15.12-7.24-15.57-8.08-9.52-18.09s6.32-10,17.12-3.8c28.44,16.42,62.16,12.62,58.56-6.6-1.56-8.28-7.45-11.81-29.91-17.92-36.67-10-44.46-16.67-44.25-38,.14-14.69,4.5-23.13,15.57-30.17,2.49-1.58,4-2.87,3.45-2.87s-2.85,1.18-5,2.62M477,905.65c15.92,6.8,15.61,6.24,9.72,18-5.28,10.51-4.77,10.26-13.13,6.3-31.3-14.84-61-9.39-52.57,9.64C423.6,945.33,450.85,957,457,955c.54-.18-3.23-1.38-8.37-2.68-20.49-5.19-27.45-9.68-27.45-17.73,0-14.6,25.16-16.41,51.69-3.72,4.66,2.23,8.87,3.81,9.33,3.52,2.39-1.47,10.55-19.94,9.56-21.62-1.15-1.93-13.29-8.32-15.68-8.25-.85,0-.39.53,1,1.13m785.2,1.39c-18.65,12.35-21.45,40.27-5.49,54.69,6.2,5.6,12.69,8.37,32.79,14,28.24,7.88,34.92,12.91,31.23,23.49-4.81,13.75-33.68,13.56-56.72-.38-10.77-6.51-11.75-6.31-18,3.66-7,11.24-4.46,15.2,14.62,22.74,51.27,20.27,98.87-3.58,87.19-43.68-2.4-8.28-15-22.46-17.59-19.85-.29.29.79,1.22,2.41,2,17.43,9,20.78,37.29,6.29,53-16.27,17.65-52,19.88-82.75,5.16-15.09-7.22-15.54-8.07-9.62-18s6.39-10.1,17.22-3.85c28.45,16.42,62.16,12.62,58.56-6.6-1.56-8.28-7.45-11.81-29.9-17.92-36.66-10-44.43-16.64-44.28-38,.1-14.62,4.48-23.11,15.59-30.17,2.49-1.58,4-2.87,3.45-2.87s-2.85,1.18-5,2.62m68.73-1.39c15.92,6.8,15.61,6.24,9.71,18-5.27,10.51-4.76,10.26-13.12,6.3-31.29-14.84-61-9.39-52.57,9.64,2.55,5.76,29.79,17.47,35.89,15.43.54-.18-3.23-1.38-8.37-2.68-20.49-5.19-27.45-9.68-27.45-17.73,0-14.6,25.16-16.41,51.69-3.72,4.67,2.23,8.87,3.81,9.34,3.52,2.38-1.47,10.54-19.94,9.55-21.62-1.15-1.93-13.29-8.32-15.68-8.25-.84,0-.39.53,1,1.13M680.87,921c-51,16.93-33.12,97.27,19.84,89.08,52.38-8.11,47.39-88.35-5.61-90.09-6.59-.22-11.6.14-14.23,1m160.44-.3C817.23,925.5,802,951,808,976.37c11.92,50.58,84.87,42,84.87-10,0-29.78-24-51.06-51.51-45.63m154.7.35c-28.42,6.92-42.12,38.78-28.51,66.32,14.19,28.69,55.76,31.56,72.93,5,22.6-34.92-5.92-80.72-44.42-71.35M294.94,922.6c-16.94,3.58-39.18,31.47-25.79,32.34,2.84.19,2.87.15.51-.55C262.17,952.17,273.59,933,286,927c21.18-10.24,48.65,2.55,50.94,23.72l.33,3-8.13.6-8.13.59,8.64-.09,8.64-.09-.25-3.27c-1.42-18.25-23.47-33-43.09-28.87m409.16.71c40.16,10.28,41.89,71.93,2.35,83.3-27.79,8-53.54-12-53.54-41.61,0-29.23,23.89-48.69,51.19-41.69m162.42,2.8c35.1,16.83,30.7,70.66-6.58,80.59-51.5,13.71-72.2-65.82-21.5-82.61,6.91-2.29,21.25-1.26,28.08,2m155.59-.16c40.2,18.76,27.53,81.66-16.44,81.66-46.63,0-57.17-69.19-12.69-83.24,8.06-2.55,21.9-1.8,29.13,1.58M96.59,953.81c-1.12,1.12-.91,48.44.22,50.23,1.55,2.46,62.31,2.24,70.36-.25,25.12-7.78,26.17-39.5,1.59-48-5.64-2-70.42-3.7-72.17-1.93m63.79,1.48c19.62,2.79,29.61,16.83,23.45,33-5.69,14.89-19.28,18-70.84,16l-14.85-.55-.52-23.49c-.29-12.91-.3-24.06,0-24.75.61-1.59,51.88-1.77,62.79-.22m136.94.72c3.75.19,10.15.19,14.23,0s1-.35-6.82-.36-11.16.16-7.41.36m170.06,2.69a39.19,39.19,0,0,0,5.6,2c2,.5,1.94.35-.51-.77a38.76,38.76,0,0,0-5.6-2c-2-.5-1.93-.35.51.77m853.94,0a38.67,38.67,0,0,0,5.59,2c2,.5,1.94.35-.51-.77a39.54,39.54,0,0,0-5.59-2c-2-.5-2-.35.51.77" transform="translate(-67.65 -108.45)"/><path id="path4" class="cls-4" d="M555.83,118.25l-8.13,2.39c-1.68.5-6.49,1.85-10.68,3-25.15,7-28.33,9.7-17.54,15.18,3.22,1.64,7.45,4.07,9.41,5.4a79.35,79.35,0,0,0,8.44,4.79c2.68,1.3,5.57,3.42,6.42,4.71,1.86,2.83,11.23,10.06,14.31,11,1.21.39,5.88,4.22,10.37,8.53s11.43,10.54,15.41,13.85,8.36,7.78,9.73,10,3.5,4.42,4.74,5c3.06,1.48,13.8,13.85,15.46,17.81.74,1.76,2.2,3.47,3.24,3.8,2.36.75,11.32,12.66,14.5,19.27a37.25,37.25,0,0,0,6,8.57C641,255,656,282.87,656,285.85a4.5,4.5,0,0,0,2,2.79c3.22,2.25,10.53,21.8,17.79,47.51,1.5,5.31,3.6,12,4.67,14.74s2.45,7.11,3.07,9.58c2.15,8.63,3.1,2.49,2.43-15.68-.76-20.44-3.63-44.58-5.8-48.83a43.1,43.1,0,0,1-2.72-9.11c-4.25-22.11-15-55-19.36-59.43-1-1-2.84-4.52-4.06-7.8a126.24,126.24,0,0,0-6.73-13.94c-2.47-4.4-4.5-8.52-4.5-9.16s-1.94-3.27-4.32-5.84a95.13,95.13,0,0,1-9.34-13.21,79.49,79.49,0,0,0-11.32-14.64c-3.47-3.36-7-7.49-7.85-9.18s-3.89-5.12-6.77-7.62c-5.29-4.61-12.53-11.58-19.24-18.52a30.73,30.73,0,0,0-6.73-5.31,64.08,64.08,0,0,1-6.09-3.56c-3.55-2.39-8.06-2.51-15.25-.39m15,1.78a31,31,0,0,0,5.48,3.06c1,.34,3.79,2.56,6.13,4.93,8.92,9.06,14.71,14.67,20.63,20,3.37,3,6.13,6.13,6.13,6.91s3.41,4.79,7.57,8.92,8.56,9.46,9.76,11.82c3.18,6.22,9.54,15.29,12.58,17.93,1.44,1.25,2.62,2.9,2.62,3.65s2.29,5.44,5.08,10.43,5.08,9.65,5.08,10.36c0,1.87,4,9.39,6.54,12.51,3.65,4.35,14.46,39.25,17.93,57.86a62.86,62.86,0,0,0,2.75,10.16c2.44,5.75,4.22,20.59,4.78,39.65.48,16.71.42,17.51-1,13.21a68.52,68.52,0,0,0-3-7.62,119.73,119.73,0,0,1-4.56-13.73c-6.58-23.25-13.81-41.92-16.66-43a2.63,2.63,0,0,1-1.65-2.21c0-2.94-15-30.83-18.43-34.28a35.15,35.15,0,0,1-5.45-7.46c-3.41-6.81-12.91-19.7-15-20.36-1.09-.35-2.63-2.19-3.43-4.09-1.81-4.34-34.87-38.93-37.29-39-.44,0-3.93-3.13-7.76-6.93s-9-8-11.6-9.28a62.13,62.13,0,0,1-10.93-8.3c-3.47-3.26-8-6.7-10-7.65a68,68,0,0,1-7.74-4.48c-2.23-1.52-6.46-4-9.4-5.55s-5.34-3.19-5.34-3.68c0-1.33,11.19-5.65,23.39-9,2.51-.7,5.72-1.62,7.11-2s4.6-1.32,7.12-2,5.72-1.58,7.12-2c4.53-1.49,7.77-1.1,11.44,1.39m303.89,7.65c.95,1.52.84,2.44-.54,4.55-2.47,3.76-1.39,3.27,1.7-.78l2.61-3.42L876,126.9c-2.28-1-2.38-1-1.28.78m-406.57,22.2c-2.38,1.53-4.57,3.53-4.87,4.45s-3.16,3-6.35,4.58a88.86,88.86,0,0,0-12.07,7.74,59.74,59.74,0,0,1-9.66,6.26c-8.67,3.63-9,9-.75,10.63,15.23,3,43.62,11.79,45.31,14,.65.85,5.46,3,10.67,4.85s13.08,5,17.46,7,8.45,3.73,9.05,3.73c1.8,0,9.91,5.08,9.91,6.2,0,.57,3.06,2.43,6.8,4.12a118.48,118.48,0,0,1,14.19,8.07c4.06,2.74,7.92,5,8.56,5s2.62,1.5,4.37,3.34c4.1,4.3,14.19,11.91,15.79,11.91.68,0,5.5,4.23,10.71,9.4a181.42,181.42,0,0,0,14.59,13.16,44.27,44.27,0,0,1,8.89,9.44c2.08,3.13,5,6.31,6.46,7.07,3.13,1.62,10.22,9.76,12.73,14.62,1,1.85,4.42,6.12,7.7,9.48a57.94,57.94,0,0,1,8.6,11.36c3.62,7.2,9.29,16.12,11.47,18,2.35,2.06,12.39,22.19,17.2,34.51a104.21,104.21,0,0,0,4.74,10.93c3.12,4.13,3.81-3.37.83-8.94a43.92,43.92,0,0,1-3.15-9.64c-3.79-18.66-15-52.42-18.76-56.34a29.08,29.08,0,0,1-4.47-7.71c-3.24-8.29-13.3-27.29-15.32-28.94-2.22-1.82-9.95-13.19-12.66-18.59-1-2.11-5.07-7-8.91-11s-7-7.67-7-8.37c0-1.13-4.65-6.14-15.75-17-2-2-6-6.23-8.93-9.5s-6.67-6.65-8.35-7.53c-4.51-2.33-10.69-7.51-10.69-9,0-1.31-7.81-7.54-9.44-7.54-.94,0-14.48-9.39-19-13.19-2.66-2.22-10.49-6.66-18.3-10.4-13.4-6.39-20.95-10.33-21.86-11.41-5.65-6.7-22.58-9.49-29.73-4.89m22.8,3c7.64,4.47,19.87,10.79,29.3,15.12,3.35,1.54,12.21,7,19.68,12s15.47,10.27,17.79,11.54a23.78,23.78,0,0,1,6,4.57c3.64,4.65,8.5,9.06,12,10.92,2,1,6.13,4.71,9.15,8.15s7,7.69,8.85,9.46C605.6,236.07,609.2,239.87,609.2,241c0,.71,3.22,4.62,7.16,8.69s8.06,9.16,9.17,11.33c2.94,5.76,12.21,19.19,13.25,19.19.49,0,1.52,1.49,2.28,3.31s3.52,7.13,6.11,11.81,4.72,9,4.72,9.51c0,1.71,4.82,10.69,6.81,12.67,3.82,3.82,20.24,59,18.17,61.07-.46.46-4.64-8.65-4.64-10.09,0-.5-1.55-3.76-3.45-7.24-6.45-11.83-7.73-14.42-7.73-15.6a2.19,2.19,0,0,0-1.44-1.73c-1.56-.6-10.37-13.74-11.89-17.74-1.3-3.43-7.13-11.4-8.34-11.4s-2.76-1.89-7.53-9.16S619.42,289.39,618,289.39s-5.78-4.15-5.78-5.59c0-.65-3.2-4.11-7.09-7.7s-11.49-10.77-16.84-15.94-10.33-9.4-11-9.4c-1.65,0-12.39-8.32-15-11.6a10.77,10.77,0,0,0-4.23-3.22c-1.25-.4-5.54-2.93-9.56-5.64a106.1,106.1,0,0,0-13.21-7.52c-3.26-1.43-6.61-3.43-7.45-4.45-2.38-2.88-23.1-12.46-37.61-17.38-3.64-1.23-7.15-2.93-7.82-3.77-1.52-1.92-21.17-8.45-37.93-12.6-7-1.73-13.3-3.32-14-3.54-1.89-.57,2.48-6.21,5.37-6.94,1.25-.31,5-2.66,8.25-5.22a81.38,81.38,0,0,1,12.3-7.67c3.5-1.67,7.26-4.37,8.47-6.06,5.76-8.09,14.83-8.89,26.07-2.29m469.23,17.31c2.07,2.29,2.27,4.46.55,6.18-1.53,1.53,0,1.62,3.7.23s3.3-2.27-1.72-5.55c-2.87-1.88-3.72-2.17-2.53-.86M389.46,206.5c-2.63,1.48-8.07,9.25-9.39,13.4-.36,1.13-3.21,4.77-6.34,8.07a59.43,59.43,0,0,0-8.46,11.61c-1.52,3.07-4.44,8.77-6.49,12.66s-3.73,7.7-3.73,8.49-2.06,3.71-4.57,6.51c-8.54,9.49-8.27,9.62,21.35,10.37,28.76.74,52.69,3.39,56.9,6.32a9.57,9.57,0,0,0,4.68,1.39c12.63,0,71.62,15.38,77.88,20.31a9.52,9.52,0,0,0,4.43,2.06c1,0,5.54,1.6,10.12,3.56a76.34,76.34,0,0,0,9.31,3.56c1.79,0,23.69,10.39,24.82,11.77,1.3,1.6,15.17,9.57,16.65,9.57,1.84,0,15.48,8.56,18.22,11.44,1.46,1.54,3.15,2.8,3.75,2.8s4.5,2.55,8.65,5.68,8.63,6.11,10,6.63,6.29,4.82,11,9.56,9.15,8.63,9.79,8.63c1.73,0,10.83,8.07,10.83,9.59,0,1.21,2.65,3.77,14.82,14.25a33.09,33.09,0,0,1,6.53,7.63c2.2,4.25,16,18.93,16.93,18,.71-.71-5.61-19.18-6.84-20-.43-.29-3.49-6.46-6.8-13.73-6.06-13.29-8.06-16.72-21-36.16-3.9-5.83-8-12.35-9.05-14.49s-2.92-4.38-4.1-5c-2.45-1.19-10.78-11.15-13.14-15.71-.88-1.7-5.73-6.7-10.79-11.12s-9.2-8.52-9.2-9.11c0-1.41-5.5-6.42-11.12-10.16a90.63,90.63,0,0,1-10.68-9.15c-3.39-3.38-6.94-6.44-7.89-6.81a79.18,79.18,0,0,1-8.8-5.8,73.93,73.93,0,0,0-10.61-6.63,32.52,32.52,0,0,1-7.81-5.58c-4.22-4.06-22-13.34-32.14-16.78a28.43,28.43,0,0,1-8-4.46,34.82,34.82,0,0,0-8.72-4.92c-18.4-7-22.47-8.47-26.66-9.41-5.8-1.3-14.95-4.86-17-6.6a10.94,10.94,0,0,0-4.07-1.86c-1.39-.3-5.28-1.24-8.64-2.1-13.88-3.52-36.17-7.86-48.28-9.39a11.24,11.24,0,0,0-6.26,1.06m19.65,2.64c6.89,1.15,15.27,2.73,18.63,3.5s9.53,2.18,13.72,3.13,8.19,2.16,8.88,2.71c1.49,1.18,16.36,6.61,22.13,8.09,2.23.58,6.58,2,9.65,3.06s8.57,3.05,12.22,4.31c8.34,2.88,12.86,5.21,14,7.18.48.85,3.94,2.66,7.7,4,11.51,4.18,29.57,13.59,33,17.19a22.85,22.85,0,0,0,6.56,4.74,74.44,74.44,0,0,1,10.78,6.8c4.08,3,8.53,5.86,9.88,6.38a8.81,8.81,0,0,1,3.76,3c1.28,2.07,16.43,15.25,17.53,15.25s27.59,27.14,29,29.86c.83,1.6,4.6,6.08,8.39,10s7.58,8.4,8.44,10.07,4.07,6.85,7.12,11.54,5.55,8.91,5.55,9.38,1.31,2.1,2.91,3.62c2.84,2.67,13,22.21,17.43,33.36a36.15,36.15,0,0,0,3.49,7.08c1.71,2,5.08,11.07,4.38,11.78S672.23,414.42,672.23,413c0-.6-5.08-6.12-11.28-12.27s-13.41-13.35-16-16-5.31-4.82-6-4.83-5.42-4.14-10.45-9.17-9.71-9.15-10.4-9.15-4.9-2.74-9.38-6.08-8.67-6.08-9.34-6.1a4.5,4.5,0,0,1-2.57-2c-1.49-2.13-16.51-11.66-20.24-12.85s-15.11-7.68-15.11-8.64S546.24,317.6,536,313.8c-4.2-1.56-9.69-3.73-12.2-4.82a60.21,60.21,0,0,0-7.57-2.72,8.89,8.89,0,0,1-4.06-2.1c-2.38-3-38.38-12.92-64.56-17.81-6.4-1.2-13.14-2.81-15-3.58-3.19-1.33-8.31-2.17-27.69-4.53-4.71-.58-19.46-1.59-32.79-2.26-26.91-1.35-26.42-1.15-20.16-7.94,2.24-2.42,4.07-5.17,4.07-6.11,0-1.77,6.4-14.57,8.63-17.27a12.48,12.48,0,0,0,1.9-4.2,15.81,15.81,0,0,1,3.44-5.68c6.12-6.57,10.79-12.87,13.14-17.73,5.14-10.65,6.7-11.12,25.93-7.91m634.5,59.13a2.27,2.27,0,0,1-1.13,2.76c-1.54.9-1.48,1,.49,1.05,3,0,3.5-1.1,1.61-3.54-1.24-1.59-1.45-1.65-1-.27M348.42,303.38c-3.62,2.62-3.59.8-4.25,247.86-.52,195.9-.39,241.55.67,242.83,1.47,1.76,91.67,2.43,94.4.7.94-.6,1.52-4.81,1.94-14.22.66-14.93.51-14.73,7-9.81,2.56,2,5.27,3.56,6,3.56s2.82,1.54,4.59,3.41c6.37,6.76,32.8,16.34,56.41,20.46a15.43,15.43,0,0,1,5.5,1.89c2.42,2,43.36,1.6,48.41-.48a84.73,84.73,0,0,1,12.68-3.28c10.78-2,21.89-5.1,29.35-8.15,3.15-1.28,7.87-3.12,10.49-4.09a30.8,30.8,0,0,0,8.64-5.35,34.59,34.59,0,0,1,8-5.4,74.33,74.33,0,0,0,11.13-7.12,83.55,83.55,0,0,1,9.29-6.35A7.22,7.22,0,0,0,661.7,757c.48-1,5.07-6.24,10.21-11.64C681.5,735.26,693.84,718,695,713.07a18,18,0,0,1,3.54-6.1c6.56-7.53,15.13-34.16,18.42-57.2a68.81,68.81,0,0,1,2.5-11.18c2.12-5.82,2.19-40.84.09-47.28-.83-2.51-2.7-10.74-4.17-18.29-3.73-19.22-12.84-45.75-15.7-45.75-.62,0-2.25-2.53-3.61-5.63a103.2,103.2,0,0,0-7.32-12.78c-2.65-3.93-5.32-8-5.92-9.09a24.87,24.87,0,0,0-3.56-4.33c-6.25-6.08-15.93-16.72-17.52-19.25-1-1.54-2.24-2.8-2.83-2.8s-4.31-2.53-8.27-5.64a86,86,0,0,0-12.71-8.24c-3-1.43-5.75-3.26-6.06-4.06-1.61-4.21-30.6-14.26-50.63-17.56-3.35-.55-9.13-1.52-12.83-2.15-9-1.54-37.45-1.57-46.2-.05-19.14,3.32-28.58,5.69-39.58,9.95-5,1.95-10.32,4-11.75,4.51s-5.09,3-8.13,5.56c-6.66,5.54-13.93,9.43-18.27,9.79l-3.2.27L441,430.19c-.14-19.57-.33-54-.42-76.43-.13-37.95-.27-40.89-1.92-41.38-2.79-.83-25.95-3.61-39.4-4.74-26-2.16-32.65-2.89-36.08-3.94-4-1.24-13.21-1.44-14.77-.32m12.61,1.9c1.71,1.2,6.17,1.89,16.23,2.52,21.12,1.33,39.17,2.82,51,4.22l10.68,1.26.26,77c.21,63.1.51,77.14,1.62,77.56,3.43,1.32,18.17-6.22,25.34-13a20.38,20.38,0,0,1,5.59-3.68c1.53-.57,6.43-2.44,10.9-4.17,37.35-14.44,88.71-14.37,129.62.18,12.59,4.48,17.13,6.68,18.33,8.92.53,1,3.6,3.06,6.82,4.56a77.34,77.34,0,0,1,12.46,8c3.64,2.91,7.34,5.72,8.22,6.23,1.24.72,14.56,15.15,21.52,23.31a115,115,0,0,1,14,21.64c2.22,4.63,4.71,8.67,5.53,9,1.39.54,4.76,8.42,9.5,22.24A187,187,0,0,1,716,583.77a122.44,122.44,0,0,0,2.6,14.09c2,6.79,1.94,29.17,0,35.21a96.27,96.27,0,0,0-2.61,13.65c-2.75,22-12.65,55.21-17,56.86-.78.3-3.18,4.32-5.33,8.95-5.08,10.94-11.78,20.22-23.84,33C664.43,751.3,660,756.44,660,757a1.05,1.05,0,0,1-1,1c-.58,0-4.35,2.47-8.39,5.49a131.07,131.07,0,0,1-13.32,8.7,46.45,46.45,0,0,0-8.89,6.12,25.35,25.35,0,0,1-7.74,4.67c-2.66,1-7.35,2.8-10.42,4.05-7.31,3-23.24,7.12-36.6,9.54-5.87,1.07-12.73,2.41-15.25,3-8.19,1.88-26.39,1.39-33.55-.89a43.13,43.13,0,0,0-8.85-2c-11.78,0-51.4-13.66-54.85-18.92a15.91,15.91,0,0,0-5.19-4,86.11,86.11,0,0,1-8.64-5.34c-7.44-5.23-7.86-4.61-7.86,11.5v13.76l-30.75.25c-54.23.45-61.58.34-62.85-.93-2.07-2.07.67-483.66,2.76-486.86,2-3,8.7-3.42,12.44-.8m349,37.4c-.1,6.66,0,11.89.3,11.63.82-.82,3.65-15.38,3.1-15.94-.29-.29-.53,0-.53.66,0,3.58-2,.44-2.3-3.64-.21-2.66-.47.62-.57,7.29M839.2,353.47c-1.26.5-2.29,1.14-2.29,1.42s.63.27,1.4,0,2.13.21,3.05,1.12c1.53,1.53,1.65,1.46,1.65-1,0-2.82-.34-3-3.81-1.56m-119,14.15c-1.27,3.63-4.19,4.17-4.36.81-.07-1.26-.75.88-1.52,4.75-1.7,8.56-1.38,9.1,2,3.44,3.54-5.91,5.94-11.11,5.4-11.66-.25-.25-.94,1-1.53,2.66M709.86,420c-1.73,5.24-.91,5.32,3.07.31,1.89-2.38,2.62-3.67,1.62-2.87-1.48,1.19-2,1.22-2.64.14-.56-.92-1.2-.17-2,2.42m133.43,12.76c0,2.52.2,3.54.44,2.29a14.66,14.66,0,0,0,0-4.58c-.24-1.26-.44-.23-.44,2.29m-331.17,92c-15.64,3.5-32.33,11-35.38,15.87-.66,1.06-1.7,1.92-2.31,1.92-1.95,0-16.66,15.91-18.26,19.76-.86,2-2.25,4-3.1,4.3-2.56,1-8.29,13.66-11.23,24.87-6.68,25.43-1.42,64.93,10.18,76.5a26,26,0,0,1,3.73,5.07c18.54,34.43,77.11,49.75,120.42,31.49C584,701.21,594,694.33,594,692.22c0-.74,1.48-2.23,3.3-3.31,4.57-2.73,14.49-14.09,16.49-18.9a28.59,28.59,0,0,1,4.46-7c3.58-3.92,4.66-6.43,6.8-15.76,1-4.19,2.14-9,2.62-10.57,1.18-3.9,1.15-34.67,0-38.67-.51-1.71-1.71-5.86-2.66-9.22-2.88-10.11-3.76-12-7.57-16.41a58,58,0,0,1-6.51-9.85,37.63,37.63,0,0,0-7.92-10c-2.78-2.41-7.31-6.54-10-9.18-5.69-5.48-11.38-9.29-17-11.35l-9.73-3.59c-13.72-5-39.92-6.81-54.08-3.64m40.59,1.51c16.68,3.43,30.12,9.25,36,15.59a50.82,50.82,0,0,0,8,6.76c4.59,3,11.08,10.14,12.91,14.26,2.07,4.65,6.89,12.2,7.8,12.2,1.23,0,4.17,5.84,5.13,10.17.43,1.95,1.58,6.3,2.56,9.65,2.44,8.42,3.08,33.44,1.06,41.18-.8,3.07-2,8.33-2.77,11.69-1.49,7-4.32,13.23-6.3,14-.74.28-2.84,3.59-4.67,7.33a45.66,45.66,0,0,1-9.62,12.87c-3.47,3.32-8.59,8.25-11.38,11-23.57,22.79-78.66,24.69-110.08,3.8-8.12-5.4-23.11-20.59-25.16-25.49-.78-1.86-2.08-3.64-2.9-4C449,665.61,442,644,440.35,627.37c-2.08-20.64,4.37-50.69,12.49-58.2a20.94,20.94,0,0,0,4.29-5.81c2.19-5.06,10.43-14.38,15.78-17.85,2.77-1.79,5.25-3.83,5.52-4.53,4.26-11.1,48.92-20,74.28-14.74m289.41,78.29c-.09.84-.4,2.67-.72,4.07-.48,2.2-.4,2.29.59.73a6.41,6.41,0,0,0,.72-4.07c-.24-1.24-.51-1.57-.59-.73m-1,21.86a12.22,12.22,0,0,0,.84,4.06c1.12,2.6,1.12-.08,0-3.55-.65-2-.81-2.15-.84-.51M840,789.75a3.92,3.92,0,0,1-1.86,2.77c-1.68,1-1.68,1,0,1.07,2,0,3.25-2.2,2.43-4.26-.34-.84-.55-.69-.61.42m102.32,9.68a37.56,37.56,0,0,0,7.12,0c2.11-.22.63-.4-3.28-.41s-5.64.18-3.84.4M71.09,859.36c-.38.37-.68,36.21-.68,79.65,0,55-.34,79.94-1.12,82.19a12.05,12.05,0,0,0-.48,5.8l.65,2.58,51.05-.38c55.9-.42,56.23-.46,68.78-6.85,34-17.34,34.77-62,1.32-80.35-5.78-3.17-7.8-5-5.44-5,2.79,0,11.56-9.91,15.09-17.05,12.52-25.32-.81-51.8-29.82-59.21-7.94-2-97.46-3.23-99.35-1.33m95.39,1.82c17.71,3.68,29.16,11.9,34.08,24.44,6.88,17.56.08,40.12-14.87,49.36-4.72,2.92-4.58,3.18,4.74,8.56,32,18.44,31.22,61.93-1.34,77.31-15,7.07-15.13,7.09-69.38,7.09H70.92l.2-4.07c.11-2.23.45-39.69.77-83.23s.83-79.56,1.13-80c1-1.63,85.36-1.1,93.46.59M534.2,871.44c-2.14,1.5-2.26,2.3-2.26,14.66,0,17.12.46,16.29-9.14,16.29-9.78,0-10.53.73-11,10.69-.55,10.89.13,11.68,10.06,11.68,10.7,0,10.11-2.38,10.11,40.82,0,37.6.37,41.3,5.15,50.76,7.76,15.39,32.21,19.72,52.88,9.38,9-4.51,9.08-4.7,4.45-15.09-4.36-9.77-4.14-9.68-12.83-5.56-7.71,3.64-11.61,3.82-16.12.76-7.86-5.35-7.57-3.75-7.91-44.55l-.3-36.52,14.53-.07c23.08-.12,22.12.36,22.14-10.93,0-11.69.52-11.37-17-11.38-21.2,0-19.19,1.6-19.72-15.91-.34-11.34-.78-14.94-1.91-15.65-2.56-1.63-18.51-1.15-21,.62m21.12,15.49c.55,15.79.78,16.35,6.61,16.55,1.67.06,9,.18,16.26.27l13.22.16.29,9.41.29,9.4-16.56,0c-22,0-19.6-4.51-19.6,37.3v35.37l2.54,4.53c5.37,9.59,12.91,11.47,24,6,3.57-1.76,6.7-3,7-2.74,2.86,2.86,7.39,16.22,6,17.63-15.31,15.31-54.83,9.72-58.88-8.32-.36-1.57-1.14-4.46-1.74-6.42-.65-2.12-1.34-19.1-1.68-42-.68-44.73.3-41.35-12-41.35h-7.43V914.2c0-10.4.4-10.83,10.14-10.68,9.28.14,9.14.37,9.16-15.17,0-16.91-.21-16.6,12-16.24l9.86.29.51,14.53M96.08,882.2c-1.41,1.42-1.87,45.14-.5,47.27,3.35,5.19,60.23,3.49,71.33-2.14,18.05-9.14,15.65-35.44-4-43.8-5.81-2.48-64.55-3.64-66.84-1.33m65.75,2.23c19,7.35,21.66,32.77,4.25,41.46-10,5-66.44,7.41-69.27,2.93-1.93-3.07-1.22-44.49.79-45.64,3.29-1.89,58.92-.8,64.23,1.25M290.5,900.94c-31.83,7-50.34,31.45-50.31,66.5,0,17,.46,19.19,6.31,31.46,16.37,34.39,71,44.11,103.23,18.37,8.18-6.53,8.2-6.76,1.58-15.14s-6.9-8.51-13.82-3c-23.62,18.72-56.94,11.9-69.13-14.14-4.24-9.06-4.67-8.87,20.42-8.87,11.57,0,33.49-.11,48.72-.25l27.68-.26.68-2.71c1.15-4.6-1.37-24.68-4.11-32.66C351.39,910,322.29,894,290.5,900.94m21.39.49c31.91,3.56,50.64,25.21,52.05,60.18l.53,13H316.13c-58.35,0-54.63-.91-48.59,11.86,12.25,25.88,47.08,32.56,71,13.63,6.43-5.09,5.17-5.36,11.41,2.48,6.07,7.63,6,8-1.16,13.72-32.39,25.6-87.94,14.78-101.92-19.83-1.58-3.92-3.54-8.73-4.35-10.71-1.92-4.7-1.47-33.27.61-38.6.76-2,1.71-4.47,2.1-5.59,7.24-20.72,26.4-36.21,49.64-40.13,6.78-1.14,6.43-1.15,17,0m110.35,1c-19.06,4.92-27.73,15.79-27.92,35-.21,21.37,7.58,28.07,44.25,38,22.46,6.11,28.35,9.64,29.91,17.92,3.6,19.22-30.12,23-58.56,6.6-10.8-6.23-11.1-6.16-17.12,3.8s-5.6,10.85,9.52,18.09c25.15,12,55.69,12.87,74.19,2,22.5-13.19,23.93-46.65,2.57-60-4.57-2.86-16.72-7-31.47-10.85-22.49-5.78-30.11-11.76-27.43-21.48,3.62-13.12,27.69-13.87,53.45-1.66,8.39,4,7.87,4.24,13.33-6.76l4.82-9.71-2.54-2c-12-9.27-47.53-14-67-9m853.93,0c-19.08,4.93-27.81,15.86-27.94,35-.15,21.4,7.62,28.07,44.28,38,22.45,6.11,28.34,9.64,29.9,17.92,3.6,19.22-30.11,23-58.56,6.6-10.83-6.25-11.28-6.15-17.22,3.85s-5.47,10.82,9.62,18c25.15,12,55.69,12.87,74.19,2,22.5-13.19,23.93-46.65,2.57-60-4.57-2.86-16.72-7-31.47-10.85-22.49-5.78-30.12-11.76-27.43-21.48,3.63-13.12,27.69-13.87,53.45-1.66,8.39,4,7.87,4.24,13.33-6.76l4.82-9.71-2.54-2c-12-9.27-47.53-14-67-9M469.4,905c8.86,2.25,19,6.47,20.21,8.39.48.78-6.78,16-8.52,17.88-.45.49-2.57-.08-4.72-1.25-25-13.67-52.32-13.45-57.18.48-3.79,10.89,4.08,17.61,27.86,23.76,32.44,8.37,40.25,13.42,44.76,28.94,11.48,39.49-41.4,61.17-90,36.9-12.83-6.41-13.2-7.28-7.09-16.76,4.73-7.35,6.21-7.76,12.5-3.45,28.95,19.8,72.59,13,61.65-9.6-3.8-7.85-8.87-10.34-37.07-18.18-28.72-8-36.64-15.52-36.43-34.63.32-29.72,31.3-43.32,74-32.48m853.94,0c8.72,2.21,16.35,5.26,19.54,7.81.93.75.12,3.2-3.31,10.05-5,10-4.8,9.8-9.11,7.21-22.48-13.56-52.54-13.34-57.34.42-3.79,10.89,4.08,17.61,27.86,23.76,32.44,8.37,40.25,13.42,44.76,28.94,11.48,39.49-41.4,61.17-90,36.9-12.85-6.41-13.21-7.28-7.1-16.76,4.74-7.35,6.21-7.76,12.5-3.45,28.95,19.8,72.59,13,61.65-9.6-3.8-7.85-8.87-10.34-37.07-18.18-28.71-8-36.65-15.54-36.43-34.6.35-29.81,31.23-43.36,74-32.5M290.22,922.63c-7.35,2.73-11.45,5.42-16.3,10.67-6.54,7.1-12,19.7-9.58,22.13,1.42,1.41,45.55,2.19,62.76,1.1l12.19-.77-.18-4.24c-.9-20.67-27.95-36.65-48.89-28.89m29,3.19c9.66,4.72,18.11,16.23,18.85,25.65l.25,3.27-12.71.74c-13.3.77-57.49.18-59.06-.8-3.26-2,2.92-15.34,10.32-22.25,11.73-11,28.15-13.53,42.35-6.61m-223.63,27c-1.11,1.11-.87,50.47.25,52.26,1.51,2.38,58.78,2.83,68.68.53,28-6.49,32.65-38.26,7.34-50l-6.36-2.94-34.58-.32c-19-.18-34.91,0-35.33.42m73.21,2.93c24.58,8.55,23.53,40.27-1.59,48-8,2.49-68.81,2.71-70.36.25-1.13-1.79-1.34-49.11-.22-50.23,1.75-1.77,66.53,0,72.17,1.93" transform="translate(-67.65 -108.45)"/></svg>