<?xml version='1.0' encoding='utf-8'?>
<svg xmlns:xlink="http://www.w3.org/1999/xlink" xmlns="http://www.w3.org/2000/svg" version="1.1" viewBox="0 0 260.88 400.13"> <defs> <linearGradient id="a"> <stop stop-color="#333" offset="0"/> <stop stop-color="#4d4d4d" offset="1"/> </linearGradient> <filter id="d" color-interpolation-filters="sRGB"> <feGaussianBlur stdDeviation="0.025072021"/> </filter> <filter id="c" color-interpolation-filters="sRGB"> <feGaussianBlur stdDeviation="0.025072021"/> </filter> <filter id="b" color-interpolation-filters="sRGB"> <feGaussianBlur stdDeviation="0.025072021"/> </filter> <filter id="h" color-interpolation-filters="sRGB"> <feGaussianBlur stdDeviation="0.025072021"/> </filter> <filter id="g" color-interpolation-filters="sRGB"> <feGaussianBlur stdDeviation="0.025072021"/> </filter> <filter id="db" color-interpolation-filters="sRGB"> <feGaussianBlur stdDeviation="0.025072021"/> </filter> <filter id="dc" color-interpolation-filters="sRGB"> <feGaussianBlur stdDeviation="0.025072021"/> </filter> <filter id="dd" color-interpolation-filters="sRGB"> <feGaussianBlur stdDeviation="0.025072021"/> </filter> <filter id="de" color-interpolation-filters="sRGB"> <feGaussianBlur stdDeviation="0.025072021"/> </filter> <filter id="df" color-interpolation-filters="sRGB"> <feGaussianBlur stdDeviation="0.025072021"/> </filter> <filter id="dg" color-interpolation-filters="sRGB"> <feGaussianBlur stdDeviation="0.025072021"/> </filter> <filter id="dh" color-interpolation-filters="sRGB"> <feGaussianBlur stdDeviation="0.025072021"/> </filter> <filter id="di" color-interpolation-filters="sRGB"> <feGaussianBlur stdDeviation="0.025072021"/> </filter> <filter id="dj" color-interpolation-filters="sRGB"> <feGaussianBlur stdDeviation="0.025072021"/> </filter> <filter id="dk" color-interpolation-filters="sRGB"> <feGaussianBlur stdDeviation="0.025072021"/> </filter> <filter id="f" color-interpolation-filters="sRGB"> <feGaussianBlur stdDeviation="0.025072021"/> </filter> <filter id="e" color-interpolation-filters="sRGB"> <feGaussianBlur stdDeviation="0.025072021"/> </filter> <filter id="dl" color-interpolation-filters="sRGB"> <feGaussianBlur stdDeviation="0.025072021"/> </filter> <filter id="eb" color-interpolation-filters="sRGB"> <feGaussianBlur stdDeviation="0.025072021"/> </filter> <filter id="dv" color-interpolation-filters="sRGB"> <feGaussianBlur stdDeviation="0.025072021"/> </filter> <filter id="ds" color-interpolation-filters="sRGB"> <feGaussianBlur stdDeviation="0.025072021"/> </filter> <filter id="dz" color-interpolation-filters="sRGB"> <feGaussianBlur stdDeviation="0.025072021"/> </filter> <filter id="dw" color-interpolation-filters="sRGB"> <feGaussianBlur stdDeviation="0.025072021"/> </filter> <filter id="dn" color-interpolation-filters="sRGB"> <feGaussianBlur stdDeviation="0.025072021"/> </filter> <filter id="dy" color-interpolation-filters="sRGB"> <feGaussianBlur stdDeviation="0.025072021"/> </filter> <filter id="do" color-interpolation-filters="sRGB"> <feGaussianBlur stdDeviation="0.025072021"/> </filter> <filter id="dq" color-interpolation-filters="sRGB"> <feGaussianBlur stdDeviation="0.025072021"/> </filter> <filter id="dm" color-interpolation-filters="sRGB"> <feGaussianBlur stdDeviation="0.025072021"/> </filter> <filter id="dx" color-interpolation-filters="sRGB"> <feGaussianBlur stdDeviation="0.025072021"/> </filter> <filter id="du" color-interpolation-filters="sRGB"> <feGaussianBlur stdDeviation="0.025072021"/> </filter> <filter id="dp" color-interpolation-filters="sRGB"> <feGaussianBlur stdDeviation="0.025072021"/> </filter> <filter id="dt" color-interpolation-filters="sRGB"> <feGaussianBlur stdDeviation="0.025072021"/> </filter> <filter id="dr" color-interpolation-filters="sRGB"> <feGaussianBlur stdDeviation="0.025072021"/> </filter> <filter id="ea" color-interpolation-filters="sRGB"> <feGaussianBlur stdDeviation="0.025072021"/> </filter> <filter id="cz" color-interpolation-filters="sRGB"> <feGaussianBlur stdDeviation="0.013340786"/> </filter> <filter id="da" color-interpolation-filters="sRGB"> <feGaussianBlur stdDeviation="0.1196777"/> </filter> <linearGradient id="ec" x1="214.14" x2="580.86" y1="501.65" y2="501.65" gradientTransform="matrix(.88851 0 0 .88851 -174.39 -639.21)" gradientUnits="userSpaceOnUse"> <stop stop-color="#46474a" offset="0"/> <stop stop-color="#2f2f2f" offset="1"/> </linearGradient> <linearGradient id="ed" x1="218.31" x2="274.29" y1="500.39" y2="500.39" gradientTransform="matrix(2.7479 0 0 .89941 -582.85 -643.88)" gradientUnits="userSpaceOnUse"> <stop stop-color="#e6e6e6" offset="0"/> <stop stop-color="#e6e6e6" stop-opacity="0" offset="1"/> </linearGradient> <linearGradient id="ee" x1="361.38" x2="361.38" y1="771.79" y2="736.38" gradientTransform="matrix(.88851 0 0 .88851 -174.39 -639.21)" gradientUnits="userSpaceOnUse" xlink:href="#a"/> <linearGradient id="ef" x1="361.38" x2="361.38" y1="768.49" y2="737.13" gradientTransform="matrix(.33211 0 0 .911 122.16 -656.21)" gradientUnits="userSpaceOnUse"> <stop stop-color="#333" offset="0"/> <stop stop-color="#4d4d4d" offset="1"/> </linearGradient> <linearGradient id="eg" x1="361.38" x2="361.38" y1="768.49" y2="737.13" gradientTransform="matrix(.33211 0 0 .911 164.31 -656.21)" gradientUnits="userSpaceOnUse"> <stop stop-color="#333" offset="0"/> <stop stop-color="#4d4d4d" offset="1"/> </linearGradient> <linearGradient id="z" x1="284.61" x2="263.9" y1="674.82" y2="663.96" gradientTransform="matrix(.88851 0 0 .88851 -177.98 -615.65)" gradientUnits="userSpaceOnUse" xlink:href="#a"/> <linearGradient id="y" x1="284.61" x2="263.9" y1="674.82" y2="663.96" gradientTransform="matrix(.88851 0 0 .88851 -157 -615.65)" gradientUnits="userSpaceOnUse" xlink:href="#a"/> <linearGradient id="x" x1="284.61" x2="263.9" y1="674.82" y2="663.96" gradientTransform="matrix(.88851 0 0 .88851 -135.46 -615.65)" gradientUnits="userSpaceOnUse" xlink:href="#a"/> <linearGradient id="w" x1="284.61" x2="263.9" y1="674.82" y2="663.96" gradientTransform="matrix(.88851 0 0 .88851 -114.48 -615.65)" gradientUnits="userSpaceOnUse" xlink:href="#a"/> <linearGradient id="v" x1="284.61" x2="263.9" y1="674.82" y2="663.96" gradientTransform="matrix(.88851 0 0 .88851 -7.7873 -615.54)" gradientUnits="userSpaceOnUse" xlink:href="#a"/> <linearGradient id="u" x1="284.61" x2="263.9" y1="674.82" y2="663.96" gradientTransform="matrix(.88851 0 0 .88851 13.193 -615.54)" gradientUnits="userSpaceOnUse" xlink:href="#a"/> <linearGradient id="t" x1="284.61" x2="263.9" y1="674.82" y2="663.96" gradientTransform="matrix(.88851 0 0 .88851 -93.052 -615.65)" gradientUnits="userSpaceOnUse" xlink:href="#a"/> <linearGradient id="s" x1="284.61" x2="263.9" y1="674.82" y2="663.96" gradientTransform="matrix(.88851 0 0 .88851 -72.072 -615.65)" gradientUnits="userSpaceOnUse" xlink:href="#a"/> <linearGradient id="r" x1="284.61" x2="263.9" y1="674.82" y2="663.96" gradientTransform="matrix(.88851 0 0 .88851 -50.532 -615.65)" gradientUnits="userSpaceOnUse" xlink:href="#a"/> <linearGradient id="q" x1="284.61" x2="263.9" y1="674.82" y2="663.96" gradientTransform="matrix(.88851 0 0 .88851 -29.552 -615.65)" gradientUnits="userSpaceOnUse" xlink:href="#a"/> <linearGradient id="p" x1="284.61" x2="263.9" y1="674.82" y2="663.96" gradientTransform="matrix(.88851 0 0 .88851 -177.98 -594.73)" gradientUnits="userSpaceOnUse" xlink:href="#a"/> <linearGradient id="o" x1="284.61" x2="263.9" y1="674.82" y2="663.96" gradientTransform="matrix(.88851 0 0 .88851 -157 -594.73)" gradientUnits="userSpaceOnUse" xlink:href="#a"/> <linearGradient id="n" x1="284.61" x2="263.9" y1="674.82" y2="663.96" gradientTransform="matrix(.88851 0 0 .88851 -135.46 -594.73)" gradientUnits="userSpaceOnUse" xlink:href="#a"/> <linearGradient id="m" x1="284.61" x2="263.9" y1="674.82" y2="663.96" gradientTransform="matrix(.88851 0 0 .88851 -114.48 -594.73)" gradientUnits="userSpaceOnUse" xlink:href="#a"/> <linearGradient id="l" x1="284.61" x2="263.9" y1="674.82" y2="663.96" gradientTransform="matrix(.88851 0 0 .88851 -7.7873 -594.62)" gradientUnits="userSpaceOnUse" xlink:href="#a"/> <linearGradient id="k" x1="284.61" x2="263.9" y1="674.82" y2="663.96" gradientTransform="matrix(.88851 0 0 .88851 13.193 -594.62)" gradientUnits="userSpaceOnUse" xlink:href="#a"/> <linearGradient id="j" x1="284.61" x2="263.9" y1="674.82" y2="663.96" gradientTransform="matrix(.88851 0 0 .88851 -93.052 -594.73)" gradientUnits="userSpaceOnUse" xlink:href="#a"/> <linearGradient id="i" x1="284.61" x2="263.9" y1="674.82" y2="663.96" gradientTransform="matrix(.88851 0 0 .88851 -72.072 -594.73)" gradientUnits="userSpaceOnUse" xlink:href="#a"/> <linearGradient id="ch" x1="284.61" x2="263.9" y1="674.82" y2="663.96" gradientTransform="matrix(.88851 0 0 .88851 -50.532 -594.73)" gradientUnits="userSpaceOnUse" xlink:href="#a"/> <linearGradient id="ci" x1="284.61" x2="263.9" y1="674.82" y2="663.96" gradientTransform="matrix(.88851 0 0 .88851 -29.552 -594.73)" gradientUnits="userSpaceOnUse" xlink:href="#a"/> <linearGradient id="cj" x1="284.61" x2="263.9" y1="674.82" y2="663.96" gradientTransform="matrix(.88851 0 0 .88851 -177.87 -573.19)" gradientUnits="userSpaceOnUse" xlink:href="#a"/> <linearGradient id="ck" x1="284.61" x2="263.9" y1="674.82" y2="663.96" gradientTransform="matrix(.88851 0 0 .88851 -156.89 -573.19)" gradientUnits="userSpaceOnUse" xlink:href="#a"/> <linearGradient id="cl" x1="284.61" x2="263.9" y1="674.82" y2="663.96" gradientTransform="matrix(.88851 0 0 .88851 -29.608 -573.13)" gradientUnits="userSpaceOnUse" xlink:href="#a"/> <linearGradient id="cm" x1="534.12" x2="478.18" y1="741.24" y2="674.07" gradientTransform="matrix(.88851 0 0 .88851 -174.39 -639.21)" gradientUnits="userSpaceOnUse" xlink:href="#a"/> <linearGradient id="cn" x1="397.24" x2="397.24" y1="268.74" y2="287.42" gradientTransform="matrix(.8857 0 0 .86949 -173.09 -633.75)" gradientUnits="userSpaceOnUse"> <stop stop-color="#6a6a6a" offset="0"/> <stop stop-color="#d5cece" offset=".2513"/> <stop stop-color="#cfcfcf" offset=".62565"/> <stop stop-color="#a4a4a4" offset="1"/> </linearGradient> <linearGradient id="co" x1="284.61" x2="263.9" y1="674.82" y2="663.96" gradientTransform="matrix(.88851 0 0 .88851 -177.98 -637.19)" gradientUnits="userSpaceOnUse" xlink:href="#a"/> <linearGradient id="cp" x1="284.61" x2="263.9" y1="674.82" y2="663.96" gradientTransform="matrix(.88851 0 0 .88851 -157 -637.19)" gradientUnits="userSpaceOnUse" xlink:href="#a"/> <linearGradient id="cq" x1="284.61" x2="263.9" y1="674.82" y2="663.96" gradientTransform="matrix(.88851 0 0 .88851 -135.46 -637.19)" gradientUnits="userSpaceOnUse" xlink:href="#a"/> <linearGradient id="cr" x1="284.61" x2="263.9" y1="674.82" y2="663.96" gradientTransform="matrix(.88851 0 0 .88851 -114.48 -637.19)" gradientUnits="userSpaceOnUse" xlink:href="#a"/> <linearGradient id="cs" x1="284.61" x2="263.9" y1="674.82" y2="663.96" gradientTransform="matrix(.88851 0 0 .88851 -7.7874 -637.08)" gradientUnits="userSpaceOnUse" xlink:href="#a"/> <linearGradient id="ct" x1="284.61" x2="263.9" y1="674.82" y2="663.96" gradientTransform="matrix(.88851 0 0 .88851 13.193 -637.08)" gradientUnits="userSpaceOnUse" xlink:href="#a"/> <linearGradient id="cu" x1="284.61" x2="263.9" y1="674.82" y2="663.96" gradientTransform="matrix(.88851 0 0 .88851 -93.052 -637.19)" gradientUnits="userSpaceOnUse" xlink:href="#a"/> <linearGradient id="cv" x1="284.61" x2="263.9" y1="674.82" y2="663.96" gradientTransform="matrix(.88851 0 0 .88851 -72.072 -637.19)" gradientUnits="userSpaceOnUse" xlink:href="#a"/> <linearGradient id="cw" x1="284.61" x2="263.9" y1="674.82" y2="663.96" gradientTransform="matrix(.88851 0 0 .88851 -50.532 -637.19)" gradientUnits="userSpaceOnUse" xlink:href="#a"/> <linearGradient id="cx" x1="284.61" x2="263.9" y1="674.82" y2="663.96" gradientTransform="matrix(.88851 0 0 .88851 -29.552 -637.19)" gradientUnits="userSpaceOnUse" xlink:href="#a"/> <linearGradient id="cy" x1="361.38" x2="361.38" y1="768.49" y2="737.13" gradientTransform="matrix(.33211 0 0 .911 164.4 -720.32)" gradientUnits="userSpaceOnUse" xlink:href="#a"/> </defs> <g transform="translate(-48.973 396.66)"> <g transform="matrix(.79916 0 0 .79972 36.532 -41.852)"> <rect x="16.419" y="-442.81" width="324.75" height="498.64" rx="37.333" ry="39.327" fill="url(#ec)" stroke="#000" stroke-miterlimit="0" stroke-width="1.7006"/> <path d="m62.879-443.48c-25.984 0-45.836 17.554-45.836 39.371v420.56c0 21.817 22.055 38.922 49.834 39.371h103.99v-499.31h-107.98z" fill="url(#ed)" opacity=".02"/> <rect x="58.706" y="-400.02" width="240.16" height="321.84" rx="0" ry="0" fill="#c9c9c9" stroke="#3c3c3c" stroke-miterlimit="0" stroke-width="1.3957"/> <rect x="59.072" y="-399.66" width="239.34" height="15.384" ry="0" fill="url(#cn)"/> <path transform="matrix(.88851 0 0 .88851 -174.39 -639.21)" d="m502.61 274v8.5625h18.281v-1.4375h2.1562v-5.5625h-2.1562v-1.5625h-18.281zm1.6562 1.625h14.875v5.25h-14.875v-5.25z" fill="#525050" filter="url(#da)" stroke="#858585" stroke-width=".34436"/> <path transform="matrix(7.9707 0 0 7.9707 -75.867 -450.29)" d="m42.906 6.8438v0.9375h0.34375v-0.9375h-0.34375zm-0.46875 0.1875v0.75h0.34375v-0.75h-0.34375zm-0.437 0.1562v0.59375h0.34375v-0.59375h-0.34375zm-0.4375 0.1875v0.40625h0.34375v-0.40625h-0.34375z" fill="#525050" filter="url(#cz)" stroke="#858585" stroke-width=".034988"/> <rect x="73.672" y="-85.185" width="211.35" height="2.0044" rx="1.1998" fill="#b8b8b8" opacity=".57542" stroke="#3c3c3c" stroke-width=".78705"/> <path d="m103.78 24.632h85.851c4.0786 0 7.3621 3.5641 7.3621 7.9911 0 4.4271-3.2835 7.9911-7.3621 7.9911h-85.851c-4.0786 0-7.3621-3.5641-7.3621-7.9911 0-4.4271 3.2835-7.9911 7.3621-7.9911z" fill="url(#ee)" stroke="#333" stroke-miterlimit="0" stroke-width="1.6663"/> <path d="m231.81 24.43h20.745c4.6669 0 8.424 3.6542 8.424 8.1934 0 4.5391-3.7571 8.1934-8.424 8.1934h-20.745c-4.6669 0-8.424-3.6542-8.424-8.1934 0-4.5391 3.7571-8.1934 8.424-8.1934z" fill="url(#ef)" stroke="#333" stroke-miterlimit="0" stroke-width="1.0316"/> <path d="m273.96 24.429h20.745c4.6669 0 8.424 3.6542 8.424 8.1934 0 4.5391-3.7571 8.1934-8.424 8.1934h-20.745c-4.6669 0-8.424-3.6542-8.424-8.1934 0-4.5391 3.7571-8.1934 8.424-8.1934z" fill="url(#eg)" stroke="#333" stroke-miterlimit="0" stroke-width="1.0316"/> <path d="m69.737-9.6732c0 4.3993-3.5663 7.9656-7.9656 7.9656s-7.9656-3.5663-7.9656-7.9656 3.5663-7.9656 7.9656-7.9656 7.9656 3.5663 7.9656 7.9656z" fill="url(#z)" stroke="#333" stroke-miterlimit="0" stroke-width="1.3944"/> <path d="m90.718-9.673c0 4.3993-3.5663 7.9656-7.9656 7.9656s-7.9656-3.5663-7.9656-7.9656 3.5663-7.9656 7.9656-7.9656 7.9656 3.5663 7.9656 7.9656z" fill="url(#y)" stroke="#333" stroke-miterlimit="0" stroke-width="1.3944"/> <path d="m112.26-9.6732c0 4.3993-3.5663 7.9656-7.9656 7.9656s-7.9656-3.5663-7.9656-7.9656 3.5663-7.9656 7.9656-7.9656 7.9656 3.5663 7.9656 7.9656z" fill="url(#x)" stroke="#333" stroke-miterlimit="0" stroke-width="1.3944"/> <path d="m133.24-9.673c0 4.3993-3.5663 7.9656-7.9656 7.9656s-7.9656-3.5663-7.9656-7.9656 3.5663-7.9656 7.9656-7.9656 7.9656 3.5663 7.9656 7.9656z" fill="url(#w)" stroke="#333" stroke-miterlimit="0" stroke-width="1.3944"/> <path d="m239.93-9.5612c0 4.3993-3.5663 7.9656-7.9656 7.9656s-7.9656-3.5663-7.9656-7.9656 3.5663-7.9656 7.9656-7.9656 7.9656 3.5663 7.9656 7.9656z" fill="url(#v)" stroke="#333" stroke-miterlimit="0" stroke-width="1.3944"/> <path d="m260.91-9.561c0 4.3993-3.5663 7.9656-7.9656 7.9656s-7.9656-3.5663-7.9656-7.9656 3.5663-7.9656 7.9656-7.9656 7.9656 3.5663 7.9656 7.9656z" fill="url(#u)" stroke="#333" stroke-miterlimit="0" stroke-width="1.3944"/> <path d="m154.67-9.6732c0 4.3993-3.5663 7.9656-7.9656 7.9656s-7.9656-3.5663-7.9656-7.9656 3.5663-7.9656 7.9656-7.9656 7.9656 3.5663 7.9656 7.9656z" fill="url(#t)" stroke="#333" stroke-miterlimit="0" stroke-width="1.3944"/> <path d="m175.65-9.673c0 4.3993-3.5663 7.9656-7.9656 7.9656s-7.9656-3.5663-7.9656-7.9656 3.5663-7.9656 7.9656-7.9656 7.9656 3.5663 7.9656 7.9656z" fill="url(#s)" stroke="#333" stroke-miterlimit="0" stroke-width="1.3944"/> <path d="m197.19-9.6732c0 4.3993-3.5663 7.9656-7.9656 7.9656s-7.9656-3.5663-7.9656-7.9656 3.5663-7.9656 7.9656-7.9656 7.9656 3.5663 7.9656 7.9656z" fill="url(#r)" stroke="#333" stroke-miterlimit="0" stroke-width="1.3944"/> <path d="m218.17-9.673c0 4.3993-3.5663 7.9656-7.9656 7.9656s-7.9656-3.5663-7.9656-7.9656 3.5663-7.9656 7.9656-7.9656 7.9656 3.5663 7.9656 7.9656z" fill="url(#q)" stroke="#333" stroke-miterlimit="0" stroke-width="1.3944"/> <path d="m69.737 11.251c0 4.3993-3.5663 7.9656-7.9656 7.9656s-7.9656-3.5663-7.9656-7.9656 3.5663-7.9656 7.9656-7.9656 7.9656 3.5663 7.9656 7.9656z" fill="url(#p)" stroke="#333" stroke-miterlimit="0" stroke-width="1.3944"/> <path d="m90.718 11.251c0 4.3993-3.5663 7.9656-7.9656 7.9656s-7.9656-3.5663-7.9656-7.9656 3.5663-7.9656 7.9656-7.9656 7.9656 3.5663 7.9656 7.9656z" fill="url(#o)" stroke="#333" stroke-miterlimit="0" stroke-width="1.3944"/> <path d="m112.26 11.251c0 4.3993-3.5663 7.9656-7.9656 7.9656s-7.9656-3.5663-7.9656-7.9656 3.5663-7.9656 7.9656-7.9656 7.9656 3.5663 7.9656 7.9656z" fill="url(#n)" stroke="#333" stroke-miterlimit="0" stroke-width="1.3944"/> <path d="m133.24 11.251c0 4.3993-3.5663 7.9656-7.9656 7.9656s-7.9656-3.5663-7.9656-7.9656 3.5663-7.9656 7.9656-7.9656 7.9656 3.5663 7.9656 7.9656z" fill="url(#m)" stroke="#333" stroke-miterlimit="0" stroke-width="1.3944"/> <path d="m239.93 11.362c0 4.3993-3.5663 7.9656-7.9656 7.9656s-7.9656-3.5663-7.9656-7.9656 3.5663-7.9656 7.9656-7.9656 7.9656 3.5663 7.9656 7.9656z" fill="url(#l)" stroke="#333" stroke-miterlimit="0" stroke-width="1.3944"/> <path d="m260.91 11.363c0 4.3993-3.5663 7.9656-7.9656 7.9656s-7.9656-3.5663-7.9656-7.9656 3.5663-7.9656 7.9656-7.9656 7.9656 3.5663 7.9656 7.9656z" fill="url(#k)" stroke="#333" stroke-miterlimit="0" stroke-width="1.3944"/> <path d="m154.67 11.251c0 4.3993-3.5663 7.9656-7.9656 7.9656s-7.9656-3.5663-7.9656-7.9656 3.5663-7.9656 7.9656-7.9656 7.9656 3.5663 7.9656 7.9656z" fill="url(#j)" stroke="#333" stroke-miterlimit="0" stroke-width="1.3944"/> <path d="m175.65 11.251c0 4.3993-3.5663 7.9656-7.9656 7.9656s-7.9656-3.5663-7.9656-7.9656 3.5663-7.9656 7.9656-7.9656 7.9656 3.5663 7.9656 7.9656z" fill="url(#i)" stroke="#333" stroke-miterlimit="0" stroke-width="1.3944"/> <path d="m197.19 11.251c0 4.3993-3.5663 7.9656-7.9656 7.9656s-7.9656-3.5663-7.9656-7.9656 3.5663-7.9656 7.9656-7.9656 7.9656 3.5663 7.9656 7.9656z" fill="url(#ch)" stroke="#333" stroke-miterlimit="0" stroke-width="1.3944"/> <path d="m218.17 11.251c0 4.3993-3.5663 7.9656-7.9656 7.9656s-7.9656-3.5663-7.9656-7.9656 3.5663-7.9656 7.9656-7.9656 7.9656 3.5663 7.9656 7.9656z" fill="url(#ci)" stroke="#333" stroke-miterlimit="0" stroke-width="1.3944"/> <path d="m69.849 32.791c0 4.3993-3.5663 7.9656-7.9656 7.9656s-7.9656-3.5663-7.9656-7.9656 3.5663-7.9656 7.9656-7.9656 7.9656 3.5663 7.9656 7.9656z" fill="url(#cj)" stroke="#333" stroke-miterlimit="0" stroke-width="1.3944"/> <path d="m90.83 32.791c0 4.3993-3.5663 7.9656-7.9656 7.9656s-7.9656-3.5663-7.9656-7.9656 3.5663-7.9656 7.9656-7.9656 7.9656 3.5663 7.9656 7.9656z" fill="url(#ck)" stroke="#333" stroke-miterlimit="0" stroke-width="1.3944"/> <path d="m218.11 32.847c0 4.3993-3.5663 7.9656-7.9656 7.9656s-7.9656-3.5663-7.9656-7.9656 3.5663-7.9656 7.9656-7.9656 7.9656 3.5663 7.9656 7.9656z" fill="url(#cl)" stroke="#333" stroke-miterlimit="0" stroke-width="1.3944"/> <path d="m274.22-17.726c-4.4484 0-8.0244 3.5464-8.0244 7.9688v20.686c0 4.4224 3.576 7.9966 8.0244 7.9966h21.269c4.4484 0 8.0244-3.5742 8.0244-7.9966v-20.686c0-4.4224-3.576-7.9688-8.0244-7.9688h-21.269zm-0.74965 6.5805h22.768v23.684h-22.768v-23.684z" fill="url(#cm)" stroke="#303030" stroke-miterlimit="0" stroke-width="1.4554"/> <path d="m69.737-31.214c0 4.3993-3.5663 7.9656-7.9656 7.9656s-7.9656-3.5663-7.9656-7.9656 3.5663-7.9656 7.9656-7.9656 7.9656 3.5663 7.9656 7.9656z" fill="url(#co)" stroke="#333" stroke-miterlimit="0" stroke-width="1.3944"/> <path d="m90.718-31.214c0 4.3993-3.5663 7.9656-7.9656 7.9656s-7.9656-3.5663-7.9656-7.9656 3.5663-7.9656 7.9656-7.9656 7.9656 3.5663 7.9656 7.9656z" fill="url(#cp)" stroke="#333" stroke-miterlimit="0" stroke-width="1.3944"/> <path d="m112.26-31.214c0 4.3993-3.5663 7.9656-7.9656 7.9656s-7.9656-3.5663-7.9656-7.9656 3.5663-7.9656 7.9656-7.9656 7.9656 3.5663 7.9656 7.9656z" fill="url(#cq)" stroke="#333" stroke-miterlimit="0" stroke-width="1.3944"/> <path d="m133.24-31.214c0 4.3993-3.5663 7.9656-7.9656 7.9656s-7.9656-3.5663-7.9656-7.9656 3.5663-7.9656 7.9656-7.9656 7.9656 3.5663 7.9656 7.9656z" fill="url(#cr)" stroke="#333" stroke-miterlimit="0" stroke-width="1.3944"/> <path d="m239.93-31.102c0 4.3993-3.5663 7.9656-7.9656 7.9656s-7.9656-3.5663-7.9656-7.9656 3.5663-7.9656 7.9656-7.9656 7.9656 3.5663 7.9656 7.9656z" fill="url(#cs)" stroke="#333" stroke-miterlimit="0" stroke-width="1.3944"/> <path d="m260.91-31.102c0 4.3993-3.5663 7.9656-7.9656 7.9656s-7.9656-3.5663-7.9656-7.9656 3.5663-7.9656 7.9656-7.9656 7.9656 3.5663 7.9656 7.9656z" fill="url(#ct)" stroke="#333" stroke-miterlimit="0" stroke-width="1.3944"/> <path d="m154.67-31.214c0 4.3993-3.5663 7.9656-7.9656 7.9656s-7.9656-3.5663-7.9656-7.9656 3.5663-7.9656 7.9656-7.9656 7.9656 3.5663 7.9656 7.9656z" fill="url(#cu)" stroke="#333" stroke-miterlimit="0" stroke-width="1.3944"/> <path d="m175.65-31.214c0 4.3993-3.5663 7.9656-7.9656 7.9656s-7.9656-3.5663-7.9656-7.9656 3.5663-7.9656 7.9656-7.9656 7.9656 3.5663 7.9656 7.9656z" fill="url(#cv)" stroke="#333" stroke-miterlimit="0" stroke-width="1.3944"/> <path d="m197.19-31.214c0 4.3993-3.5663 7.9656-7.9656 7.9656s-7.9656-3.5663-7.9656-7.9656 3.5663-7.9656 7.9656-7.9656 7.9656 3.5663 7.9656 7.9656z" fill="url(#cw)" stroke="#333" stroke-miterlimit="0" stroke-width="1.3944"/> <path d="m218.17-31.214c0 4.3993-3.5663 7.9656-7.9656 7.9656s-7.9656-3.5663-7.9656-7.9656 3.5663-7.9656 7.9656-7.9656 7.9656 3.5663 7.9656 7.9656z" fill="url(#cx)" stroke="#333" stroke-miterlimit="0" stroke-width="1.3944"/> <path d="m274.04-39.679h20.745c4.6669 0 8.424 3.6542 8.424 8.1934 0 4.5391-3.7571 8.1934-8.424 8.1934h-20.745c-4.6669 0-8.424-3.6542-8.424-8.1934 0-4.5391 3.7571-8.1934 8.424-8.1934z" fill="url(#cy)" stroke="#333" stroke-miterlimit="0" stroke-width="1.0316"/> <path d="m286.96 0.31492c0 0.9858-0.81692 1.785-1.8246 1.785s-1.8246-0.79915-1.8246-1.785c0-0.9858 0.81692-1.785 1.8246-1.785 0.98651 0 1.7944 0.76707 1.8238 1.7317" fill="#908f8b" opacity=".35" stroke="#747474" stroke-width=".13944"/> <path transform="matrix(.88851 0 0 .88851 -174.39 -639.21)" d="m507.91 681.93h1.4356l0.99609 2.3408 1.002-2.3408h1.4326v4.374h-1.0664v-3.1992l-1.0078 2.3584h-0.71485l-1.0078-2.3584v3.1992h-1.0693v-4.374" fill="#908f8b" filter="url(#d)" opacity=".35" stroke="#747474" stroke-width=".15693"/> <path transform="matrix(.88851 0 0 .88851 -174.39 -639.21)" d="m517.12 684.65v0.29882h-2.4522c0.0254 0.2461 0.11426 0.43067 0.2666 0.55371 0.15235 0.12305 0.36524 0.18458 0.63868 0.18458 0.2207 0 0.44628-0.0322 0.67675-0.0967 0.23242-0.0664 0.4707-0.16602 0.71485-0.29883v0.80859c-0.24805 0.0937-0.4961 0.16406-0.74414 0.21094-0.24805 0.0488-0.4961 0.0732-0.74414 0.0732-0.59376 0-1.0557-0.15039-1.3858-0.45117-0.32812-0.30273-0.49218-0.72656-0.49218-1.2715 0-0.53515 0.16113-0.95605 0.4834-1.2627 0.32421-0.30664 0.76952-0.45996 1.3359-0.45996 0.51562 0 0.92773 0.15527 1.2363 0.46582 0.31054 0.31055 0.46582 0.72559 0.46582 1.2451m-1.0781-0.34864c-1e-5 -0.19921-0.0586-0.35937-0.17579-0.48047-0.11523-0.12304-0.2666-0.18456-0.4541-0.18457-0.20312 1e-5 -0.36816 0.0576-0.49511 0.17286-0.12696 0.11328-0.20606 0.27734-0.23731 0.49218h1.3623" fill="#908f8b" filter="url(#d)" opacity=".35" stroke="#747474" stroke-width=".15693"/> <path transform="matrix(.88851 0 0 .88851 -174.39 -639.21)" d="m521.21 684.31v1.998h-1.0547v-1.5293c-1e-5 -0.2832-7e-3 -0.47851-0.0205-0.58593-0.0117-0.10742-0.0332-0.18653-0.0645-0.23731-0.041-0.0684-0.0967-0.12109-0.167-0.1582-0.0703-0.0391-0.15039-0.0586-0.24023-0.0586-0.21875 1e-5 -0.39063 0.085-0.51563 0.25489-0.125 0.16797-0.1875 0.40137-0.1875 0.70019v1.6143h-1.0488v-3.2812h1.0488v0.48047c0.15821-0.1914 0.32617-0.33203 0.50391-0.42188 0.17773-0.0918 0.37402-0.13769 0.58887-0.13769 0.3789 0 0.66601 0.11621 0.86133 0.34863 0.19726 0.23243 0.29589 0.57032 0.29589 1.0137" fill="#908f8b" filter="url(#d)" opacity=".35" stroke="#747474" stroke-width=".15693"/> <path transform="matrix(.88851 0 0 .88851 -174.39 -639.21)" d="m522.15 685.03v-2.0039h1.0547v0.32812c0 0.17774-9.8e-4 0.40137-3e-3 0.6709-2e-3 0.26758-3e-3 0.44629-3e-3 0.53614 0 0.26367 7e-3 0.4541 0.0205 0.57129 0.0137 0.11523 0.0371 0.19921 0.0703 0.25195 0.043 0.0684 0.0986 0.12109 0.16699 0.1582 0.0703 0.0371 0.15039 0.0557 0.24024 0.0557 0.21875 0 0.39062-0.084 0.51562-0.25196 0.125-0.16797 0.1875-0.40136 0.1875-0.70019v-1.6201h1.0488v3.2812h-1.0488v-0.47461c-0.1582 0.19141-0.32617 0.33301-0.5039 0.42481-0.17579 0.0898-0.37012 0.13476-0.58301 0.13476-0.37891 0-0.66797-0.11621-0.86719-0.34863-0.19726-0.23242-0.2959-0.57031-0.2959-1.0137" fill="#908f8b" filter="url(#d)" opacity=".35" stroke="#747474" stroke-width=".15693"/> <path transform="matrix(.88851 0 0 .88851 -174.39 -639.21)" d="m510.93 755.73c0.17773 0 0.3125-0.0391 0.4043-0.11719 0.0918-0.0781 0.13769-0.19335 0.13769-0.3457 0-0.15039-0.0459-0.26465-0.13769-0.34277-0.0918-0.0801-0.22657-0.12012-0.4043-0.12012h-0.62402v0.92578h0.62402m0.0381 1.9131c0.22656 0 0.39648-0.0478 0.50976-0.14356 0.11523-0.0957 0.17285-0.24023 0.17285-0.43359 0-0.18945-0.0566-0.33106-0.16992-0.42481-0.11328-0.0957-0.28418-0.14355-0.51269-0.14355h-0.66211v1.1455h0.66211m1.0488-1.5732c0.24219 0.0703 0.42969 0.2002 0.5625 0.38965 0.13281 0.18946 0.19922 0.42188 0.19922 0.69727 0 0.42187-0.14258 0.73633-0.42773 0.94336-0.28516 0.20703-0.71875 0.31054-1.3008 0.31054h-1.8721v-4.374h1.6934c0.60741 1e-5 1.0469 0.0918 1.3184 0.27539 0.27343 0.1836 0.41015 0.47754 0.41015 0.88184 0 0.21289-0.0498 0.39453-0.14941 0.54492-0.0996 0.14844-0.24415 0.25879-0.4336 0.33105" fill="#908f8b" filter="url(#c)" opacity=".35" stroke="#747474" stroke-width=".15693"/> <path transform="matrix(.88851 0 0 .88851 -174.39 -639.21)" d="m515.17 756.94c-0.21875 0-0.38379 0.0371-0.49512 0.11133-0.10938 0.0742-0.16406 0.18359-0.16406 0.32812 0 0.13282 0.0439 0.23731 0.13183 0.31348 0.0899 0.0742 0.21387 0.11133 0.37207 0.11133 0.19727 0 0.36328-0.0703 0.49805-0.21094 0.13476-0.14258 0.20215-0.32031 0.20215-0.5332v-0.12012h-0.54492m1.6025-0.39551v1.8721h-1.0576v-0.48632c-0.14063 0.19922-0.29883 0.34472-0.47461 0.43652-0.17578 0.0898-0.38965 0.13477-0.6416 0.13477-0.33985 0-0.61621-0.0986-0.8291-0.2959-0.21094-0.19922-0.31641-0.45703-0.31641-0.77344 0-0.38477 0.13184-0.66699 0.39551-0.84668 0.26562-0.17969 0.68164-0.26953 1.248-0.26953h0.61817v-0.082c0-0.16602-0.0654-0.28711-0.19629-0.36328-0.13086-0.0781-0.33496-0.11719-0.6123-0.11719-0.22462 0-0.4336 0.0225-0.62696 0.0674s-0.37305 0.11231-0.53906 0.20215v-0.79981c0.22461-0.0547 0.45019-0.0957 0.67676-0.12304 0.22656-0.0293 0.45312-0.0439 0.67968-0.0439 0.5918 1e-5 1.0186 0.11719 1.2803 0.35157 0.26367 0.23242 0.3955 0.61133 0.39551 1.1367" fill="#908f8b" filter="url(#c)" opacity=".35" stroke="#747474" stroke-width=".15693"/> <path transform="matrix(.88851 0 0 .88851 -174.39 -639.21)" d="m520.41 755.23v0.85547c-0.14258-0.0977-0.28614-0.16992-0.43067-0.21679-0.14258-0.0469-0.29101-0.0703-0.44531-0.0703-0.29297 1e-5 -0.52148 0.0859-0.68554 0.25782-0.16212 0.16992-0.24317 0.4082-0.24317 0.71484s0.0811 0.5459 0.24317 0.71777c0.16406 0.16992 0.39257 0.25489 0.68554 0.25489 0.16406 0 0.31934-0.0244 0.46582-0.0733 0.14844-0.0488 0.28516-0.12109 0.41016-0.21679v0.85839c-0.16407 0.0606-0.33106 0.10547-0.50098 0.13477-0.16797 0.0312-0.33691 0.0469-0.50683 0.0469-0.5918 0-1.0547-0.15137-1.3887-0.45411-0.33398-0.30468-0.50097-0.72753-0.50097-1.2686 0-0.54101 0.16699-0.96289 0.50097-1.2656 0.33399-0.30468 0.79688-0.45702 1.3887-0.45703 0.17187 1e-5 0.34081 0.0156 0.50683 0.0469 0.16797 0.0293 0.33496 0.0742 0.50098 0.13476" fill="#908f8b" filter="url(#c)" opacity=".35" stroke="#747474" stroke-width=".15693"/> <path transform="matrix(.88851 0 0 .88851 -174.39 -639.21)" d="m521.32 753.85h1.0488v2.4814l1.207-1.2041h1.2188l-1.6025 1.5059 1.7285 1.7754h-1.2715l-1.2803-1.3682v1.3682h-1.0488v-4.5586" fill="#908f8b" filter="url(#c)" opacity=".35" stroke="#747474" stroke-width=".15693"/> <path transform="matrix(.88851 0 0 .88851 -174.39 -639.21)" d="m459.63 754.04h1.1279v1.667h1.6641v-1.667h1.1279v4.374h-1.1279v-1.8545h-1.6641v1.8545h-1.1279v-4.374" fill="#908f8b" filter="url(#b)" opacity=".35" stroke="#747474" stroke-width=".15693"/> <path transform="matrix(.88851 0 0 .88851 -174.39 -639.21)" d="m466.17 755.8c-0.23243 1e-5 -0.41016 0.084-0.53321 0.25196-0.12109 0.16601-0.18164 0.40625-0.18164 0.7207s0.0605 0.55566 0.18164 0.72363c0.12305 0.16602 0.30078 0.24903 0.53321 0.24903 0.22851 0 0.40332-0.083 0.52441-0.24903 0.12109-0.16797 0.18164-0.40918 0.18164-0.72363s-0.0606-0.55469-0.18164-0.7207c-0.12109-0.16797-0.2959-0.25195-0.52441-0.25196m0-0.75c0.56445 1e-5 1.0049 0.15235 1.3213 0.45703 0.31835 0.30469 0.47753 0.72657 0.47754 1.2656-1e-5 0.53906-0.15919 0.96094-0.47754 1.2656-0.31641 0.30469-0.75684 0.45704-1.3213 0.45704-0.56641 0-1.0098-0.15235-1.3301-0.45704-0.31836-0.30468-0.47754-0.72656-0.47754-1.2656 0-0.53906 0.15918-0.96094 0.47754-1.2656 0.32031-0.30468 0.76367-0.45702 1.3301-0.45703" fill="#908f8b" filter="url(#b)" opacity=".35" stroke="#747474" stroke-width=".15693"/> <path transform="matrix(.88851 0 0 .88851 -174.39 -639.21)" d="m471.78 755.68c0.13281-0.20313 0.29003-0.35742 0.47168-0.46289 0.18359-0.10742 0.38476-0.16113 0.60351-0.16114 0.37695 1e-5 0.66406 0.11622 0.86133 0.34864 0.19726 0.23242 0.2959 0.57031 0.2959 1.0137v1.998h-1.0547v-1.7109c2e-3 -0.0254 3e-3 -0.0518 3e-3 -0.0791 2e-3 -0.0274 3e-3 -0.0664 3e-3 -0.11719 0-0.23242-0.0342-0.40039-0.10254-0.50391-0.0684-0.10546-0.17871-0.1582-0.33105-0.1582-0.19922 0-0.35352 0.082-0.46289 0.24609-0.10743 0.16407-0.16309 0.40137-0.16699 0.71192v1.6113h-1.0547v-1.7109c0-0.36328-0.0312-0.59668-0.0937-0.7002-0.0625-0.10546-0.17383-0.1582-0.33399-0.1582-0.20117 0-0.35644 0.083-0.46582 0.24902-0.10937 0.16407-0.16406 0.39942-0.16406 0.70606v1.6142h-1.0547v-3.2812h1.0547v0.48047c0.12891-0.18554 0.27637-0.32519 0.44238-0.41894 0.16797-0.0937 0.35254-0.14062 0.55372-0.14063 0.22656 1e-5 0.42675 0.0547 0.60058 0.16407s0.30566 0.26269 0.39551 0.45996" fill="#908f8b" filter="url(#b)" opacity=".35" stroke="#747474" stroke-width=".15693"/> <path transform="matrix(.88851 0 0 .88851 -174.39 -639.21)" d="m478.27 756.76v0.29883h-2.4522c0.0254 0.24609 0.11425 0.43066 0.2666 0.55371 0.15234 0.12305 0.36523 0.18457 0.63867 0.18457 0.2207 0 0.44629-0.0322 0.67676-0.0967 0.23242-0.0664 0.4707-0.16601 0.71484-0.29883v0.8086c-0.24805 0.0937-0.49609 0.16406-0.74414 0.21093-0.24805 0.0488-0.49609 0.0733-0.74414 0.0733-0.59375 0-1.0557-0.1504-1.3857-0.45118-0.32813-0.30273-0.49219-0.72656-0.49219-1.2715 0-0.53516 0.16113-0.95605 0.4834-1.2627 0.32422-0.30663 0.76953-0.45995 1.3359-0.45996 0.51562 1e-5 0.92773 0.15528 1.2363 0.46582 0.31054 0.31055 0.46581 0.72559 0.46582 1.2451m-1.0781-0.34863c0-0.19922-0.0586-0.35938-0.17578-0.48047-0.11524-0.12305-0.2666-0.18457-0.4541-0.18457-0.20313 0-0.36817 0.0576-0.49512 0.17285-0.12695 0.11328-0.20605 0.27735-0.2373 0.49219h1.3623" fill="#908f8b" filter="url(#b)" opacity=".35" stroke="#747474" stroke-width=".15693"/> <path transform="matrix(.88851 0 0 .88851 -174.39 -639.21)" d="m431.5 757.62h-1.7637l-0.27832 0.79687h-1.1338l1.6201-4.374h1.3447l1.6201 4.374h-1.1338l-0.27539-0.79687m-1.4824-0.81152h1.1982l-0.59766-1.7402-0.60058 1.7402" fill="#908f8b" filter="url(#h)" opacity=".35" stroke="#747474" stroke-width=".15693"/> <path transform="matrix(.88851 0 0 .88851 -174.39 -639.21)" d="m434.91 756.94c-0.21875 0-0.38379 0.0371-0.49511 0.11133-0.10938 0.0742-0.16407 0.18359-0.16407 0.32812 0 0.13282 0.0439 0.23731 0.13184 0.31348 0.0898 0.0742 0.21387 0.11133 0.37207 0.11133 0.19726 0 0.36328-0.0703 0.49805-0.21094 0.13476-0.14258 0.20214-0.32031 0.20215-0.5332v-0.12012h-0.54493m1.6025-0.39551v1.8721h-1.0576v-0.48632c-0.14063 0.19921-0.29883 0.34472-0.47461 0.43652-0.17579 0.0898-0.38965 0.13476-0.6416 0.13476-0.33985 0-0.61622-0.0986-0.82911-0.29589-0.21093-0.19922-0.3164-0.45703-0.3164-0.77344 0-0.38477 0.13183-0.66699 0.39551-0.84668 0.26562-0.17969 0.68163-0.26953 1.248-0.26953h0.61817v-0.082c-1e-5 -0.16602-0.0654-0.28711-0.19629-0.36328-0.13086-0.0781-0.33497-0.11719-0.61231-0.11719-0.22461 0-0.43359 0.0225-0.62695 0.0674s-0.37305 0.11231-0.53906 0.20215v-0.79981c0.22461-0.0547 0.45019-0.0957 0.67675-0.12304 0.22657-0.0293 0.45313-0.0439 0.67969-0.0439 0.5918 1e-5 1.0186 0.11719 1.2803 0.35156 0.26366 0.23243 0.3955 0.61134 0.3955 1.1367" fill="#908f8b" filter="url(#h)" opacity=".35" stroke="#747474" stroke-width=".15693"/> <path transform="matrix(.88851 0 0 .88851 -174.39 -639.21)" d="m287.61 758h-1.7637l-0.27833 0.79688h-1.1338l1.6201-4.374h1.3447l1.6201 4.374h-1.1338l-0.27539-0.79688m-1.4824-0.81152h1.1982l-0.59766-1.7402-0.60058 1.7402" fill="#908f8b" filter="url(#g)" opacity=".35" stroke="#747474" stroke-width=".15693"/> <path transform="matrix(.88851 0 0 .88851 -174.39 -639.21)" d="m289.55 754.23h1.0488v4.5586h-1.0488v-4.5586" fill="#908f8b" filter="url(#g)" opacity=".35" stroke="#747474" stroke-width=".15693"/> <path transform="matrix(.88851 0 0 .88851 -174.39 -639.21)" d="m292.76 754.58v0.93164h1.081v0.75h-1.081v1.3916c0 0.15235 0.0303 0.25586 0.0908 0.31055 0.0605 0.0527 0.18066 0.0791 0.36035 0.0791h0.53906v0.75h-0.89941c-0.41407 0-0.70801-0.0859-0.88184-0.25781-0.17187-0.17383-0.25781-0.46778-0.25781-0.88184v-1.3916h-0.52148v-0.75h0.52148v-0.93164h1.0488" fill="#908f8b" filter="url(#g)" opacity=".35" stroke="#747474" stroke-width=".15693"/> <path transform="matrix(.88851 0 0 .88851 -174.39 -639.21)" d="m266.15 686.42h-0.0879c-0.7207 0-1.2812-0.19922-1.6816-0.59765-0.40039-0.39844-0.60058-0.95313-0.60058-1.6641 0-0.70898 0.19922-1.2646 0.59765-1.667 0.40039-0.40234 0.95117-0.60351 1.6524-0.60351 0.70898 0 1.2607 0.19922 1.6553 0.59765 0.39648 0.39844 0.59472 0.95606 0.59473 1.6728-1e-5 0.49219-0.10548 0.91602-0.31641 1.2715-0.20899 0.35547-0.51075 0.62304-0.90527 0.80273l0.88183 0.98438h-1.0752l-0.71485-0.79688m-0.12011-3.7148c-0.34375 0-0.61036 0.12696-0.79981 0.38086-0.18945 0.25391-0.28418 0.61133-0.28418 1.0723 0 0.46876 0.0928 0.82813 0.27832 1.0781 0.18555 0.24805 0.4541 0.37207 0.80567 0.37207 0.3457 0 0.61328-0.12695 0.80273-0.38086s0.28418-0.61035 0.28418-1.0693c0-0.46093-0.0947-0.81835-0.28418-1.0723-0.18945-0.2539-0.45703-0.38086-0.80273-0.38086" fill="#908f8b" filter="url(#db)" opacity=".35" stroke="#747474" stroke-width=".15693"/> <path transform="matrix(.88851 0 0 .88851 -174.39 -639.21)" d="m286.19 682.47h1.0811l0.75585 3.1787 0.75-3.1787h1.0869l0.75 3.1787 0.75586-3.1787h1.0723l-1.0312 4.374h-1.3008l-0.79394-3.3252-0.78516 3.3252h-1.3008l-1.04-4.374" fill="#908f8b" filter="url(#dc)" opacity=".35" stroke="#747474" stroke-width=".15693"/> <path transform="matrix(.88851 0 0 .88851 -174.39 -639.21)" d="m312.1 682.35h3.044v0.85254h-1.916v0.81445h1.8018v0.85254h-1.8018v1.002h1.9805v0.85254h-3.1084v-4.374" fill="#908f8b" filter="url(#dd)" opacity=".35" stroke="#747474" stroke-width=".15693"/> <path transform="matrix(.88851 0 0 .88851 -174.39 -639.21)" d="m337.31 684.23c0.23632 0 0.40527-0.0439 0.50683-0.13184 0.10352-0.0879 0.15528-0.23242 0.15528-0.43359 0-0.19922-0.0518-0.3418-0.15528-0.42774-0.10156-0.0859-0.27051-0.1289-0.50683-0.12891h-0.47461v1.1221h0.47461m-0.47461 0.77929v1.6553h-1.1279v-4.374h1.7227c0.57617 1e-5 0.99804 0.0967 1.2656 0.29004 0.26953 0.19336 0.40429 0.49903 0.4043 0.91699-1e-5 0.28907-0.0703 0.52637-0.21094 0.71192-0.13868 0.18555-0.34864 0.32227-0.62988 0.41015 0.15429 0.0352 0.29199 0.11524 0.41308 0.24024 0.12305 0.12305 0.24707 0.31055 0.37207 0.5625l0.61231 1.2422h-1.2012l-0.53321-1.0869c-0.10742-0.21875-0.2168-0.36816-0.32812-0.44824-0.10938-0.0801-0.25586-0.12012-0.43945-0.12012h-0.31934" fill="#908f8b" filter="url(#de)" opacity=".35" stroke="#747474" stroke-width=".15693"/> <path transform="matrix(.88851 0 0 .88851 -174.39 -639.21)" d="m359.58 682.48h4.0312v0.85253h-1.4502v3.5215h-1.1279v-3.5215h-1.4531v-0.85253" fill="#908f8b" filter="url(#df)" opacity=".35" stroke="#747474" stroke-width=".15693"/> <path transform="matrix(.88851 0 0 .88851 -174.39 -639.21)" d="m382.83 682.54h1.2334l0.99609 1.5586 0.99609-1.5586h1.2363l-1.667 2.5312v1.8428h-1.1279v-1.8428l-1.667-2.5312" fill="#908f8b" filter="url(#dg)" opacity=".35" stroke="#747474" stroke-width=".15693"/> <path transform="matrix(.88851 0 0 .88851 -174.39 -639.21)" d="m407.55 682.42h1.1279v2.6221c0 0.36133 0.0586 0.62012 0.17579 0.77637 0.11913 0.1543 0.31249 0.23145 0.58007 0.23145 0.26953 0 0.46289-0.0771 0.58008-0.23145 0.11914-0.15625 0.17871-0.41504 0.17871-0.77637v-2.6221h1.1279v2.6221c0 0.61915-0.15528 1.0801-0.46582 1.3828-0.31055 0.30273-0.78418 0.4541-1.4209 0.4541-0.63476 0-1.1074-0.15137-1.418-0.4541-0.31054-0.30274-0.46582-0.76367-0.46582-1.3828v-2.6221" fill="#908f8b" filter="url(#dh)" opacity=".35" stroke="#747474" stroke-width=".15693"/> <path transform="matrix(.88851 0 0 .88851 -174.39 -639.21)" d="m432.62 682.42h1.1279v4.374h-1.1279v-4.374" fill="#908f8b" filter="url(#di)" opacity=".35" stroke="#747474" stroke-width=".15693"/> <path transform="matrix(.88851 0 0 .88851 -174.39 -639.21)" d="m457.52 683.28c-0.34375 0-0.61035 0.12695-0.7998 0.38086-0.18946 0.25391-0.28418 0.61133-0.28418 1.0723 0 0.45899 0.0947 0.81543 0.28418 1.0693 0.18945 0.2539 0.45605 0.38086 0.7998 0.38086 0.3457 0 0.61328-0.12696 0.80274-0.38086 0.18945-0.25391 0.28417-0.61035 0.28418-1.0693-1e-5 -0.46093-0.0947-0.81835-0.28418-1.0723-0.18946-0.25391-0.45704-0.38086-0.80274-0.38086m0-0.81739c0.70313 1e-5 1.2539 0.20118 1.6524 0.60352 0.39843 0.40235 0.59765 0.95801 0.59765 1.667 0 0.70703-0.19922 1.2617-0.59765 1.6641-0.39844 0.40235-0.94922 0.60352-1.6524 0.60352-0.70117 0-1.252-0.20117-1.6523-0.60352-0.39844-0.40234-0.59766-0.95703-0.59766-1.6641 0-0.70898 0.19922-1.2646 0.59766-1.667 0.40039-0.40234 0.95117-0.60351 1.6523-0.60352" fill="#908f8b" filter="url(#dj)" opacity=".35" stroke="#747474" stroke-width=".15693"/> <path transform="matrix(.88851 0 0 .88851 -174.39 -639.21)" d="m479.59 682.73h1.8721c0.55664 0 0.9834 0.12403 1.2803 0.37207 0.29882 0.2461 0.44824 0.59766 0.44824 1.0547 0 0.45898-0.14942 0.8125-0.44824 1.0605-0.29688 0.2461-0.72364 0.36914-1.2803 0.36914h-0.74414v1.5176h-1.1279v-4.374m1.1279 0.81738v1.2217h0.62403c0.21874 0 0.38769-0.0527 0.50683-0.1582 0.11914-0.10742 0.17871-0.25879 0.17871-0.4541s-0.0596-0.3457-0.17871-0.45118c-0.11914-0.10546-0.28809-0.1582-0.50683-0.1582h-0.62403" fill="#908f8b" filter="url(#dk)" opacity=".35" stroke="#747474" stroke-width=".15693"/> <path transform="matrix(.88851 0 0 .88851 -174.39 -639.21)" d="m476.95 707.82v2.6689h0.40429c0.46094 0 0.8125-0.11426 1.0547-0.34277 0.24414-0.22852 0.36621-0.56055 0.36621-0.9961 0-0.43359-0.1211-0.76366-0.36328-0.99023-0.24219-0.22656-0.59473-0.33984-1.0576-0.33984h-0.40429m-1.1279-0.85254h1.1894c0.66406 0 1.1582 0.0478 1.4824 0.14355 0.32617 0.0938 0.60547 0.25391 0.83789 0.48047 0.20508 0.19727 0.35742 0.42481 0.45703 0.68262 0.0996 0.25781 0.14941 0.54981 0.14942 0.87597-1e-5 0.33008-0.0498 0.62501-0.14942 0.88477-0.0996 0.25781-0.25195 0.48535-0.45703 0.68262-0.23438 0.22656-0.51563 0.38769-0.84375 0.4834-0.32813 0.0937-0.82031 0.14062-1.4766 0.14062h-1.1894v-4.374" fill="#908f8b" filter="url(#f)" opacity=".35" stroke="#747474" stroke-width=".15693"/> <path transform="matrix(.88851 0 0 .88851 -174.39 -639.21)" d="m484.03 709.69v0.29882h-2.4522c0.0254 0.2461 0.11426 0.43067 0.2666 0.55372 0.15235 0.12304 0.36524 0.18457 0.63868 0.18457 0.2207 0 0.44628-0.0322 0.67675-0.0967 0.23242-0.0664 0.4707-0.16602 0.71485-0.29883v0.80859c-0.24805 0.0937-0.4961 0.16406-0.74414 0.21094-0.24805 0.0488-0.4961 0.0732-0.74414 0.0732-0.59376 0-1.0557-0.15039-1.3858-0.45117-0.32812-0.30273-0.49218-0.72656-0.49218-1.2715 0-0.53516 0.16113-0.95606 0.48339-1.2627 0.32422-0.30664 0.76953-0.45996 1.3359-0.45996 0.51562 0 0.92773 0.15528 1.2363 0.46582 0.31054 0.31055 0.46582 0.72559 0.46582 1.2451m-1.0781-0.34864c-1e-5 -0.19921-0.0586-0.35937-0.17579-0.48047-0.11523-0.12304-0.2666-0.18456-0.4541-0.18457-0.20312 1e-5 -0.36816 0.0576-0.49511 0.17286-0.12696 0.11328-0.20606 0.27734-0.23731 0.49218h1.3623" fill="#908f8b" filter="url(#f)" opacity=".35" stroke="#747474" stroke-width=".15693"/> <path transform="matrix(.88851 0 0 .88851 -174.39 -639.21)" d="m484.82 706.78h1.0488v4.5586h-1.0488v-4.5586" fill="#908f8b" filter="url(#f)" opacity=".35" stroke="#747474" stroke-width=".15693"/> <path transform="matrix(.88851 0 0 .88851 -174.39 -639.21)" d="m455.07 730.01v0.92578c-0.24024-0.10741-0.47461-0.18847-0.70312-0.24316-0.22852-0.0547-0.44434-0.082-0.64747-0.082-0.26953 0-0.46875 0.0371-0.59765 0.11133-0.12891 0.0742-0.19336 0.18945-0.19336 0.3457 0 0.11719 0.043 0.20899 0.1289 0.27539 0.0879 0.0645 0.2461 0.12012 0.47461 0.16699l0.48047 0.0967c0.48633 0.0977 0.83203 0.2461 1.0371 0.44532 0.20508 0.19922 0.30762 0.48242 0.30762 0.8496 0 0.48243-0.14356 0.8418-0.43066 1.0781-0.28516 0.23437-0.72169 0.35156-1.3096 0.35156-0.27735 0-0.55567-0.0264-0.83497-0.0791-0.27929-0.0527-0.55859-0.13086-0.83789-0.23437v-0.95215c0.2793 0.14844 0.54883 0.26074 0.8086 0.33691 0.26171 0.0742 0.51367 0.11133 0.75586 0.11133 0.24609 0 0.43456-0.041 0.56543-0.12305 0.13085-0.082 0.19628-0.19922 0.19629-0.35156-1e-5 -0.13672-0.0449-0.24219-0.13477-0.31641-0.0879-0.0742-0.26465-0.14062-0.53027-0.19921l-0.43653-0.0967c-0.4375-0.0937-0.75781-0.24317-0.96093-0.44825-0.20118-0.20507-0.30176-0.48144-0.30176-0.8291 0-0.43554 0.14062-0.7705 0.42187-1.0049 0.28125-0.23437 0.68555-0.35156 1.2129-0.35156 0.24024 0 0.48731 0.0186 0.74121 0.0557 0.25391 0.0352 0.5166 0.0889 0.78809 0.16113" fill="#908f8b" filter="url(#e)" opacity=".35" stroke="#747474" stroke-width=".15693"/> <path transform="matrix(.88851 0 0 .88851 -174.39 -639.21)" d="m455.88 730.96h1.0488l0.88184 2.2266 0.75-2.2266h1.0488l-1.3799 3.5918c-0.13867 0.36523-0.30078 0.62011-0.48632 0.76465-0.1836 0.14648-0.42676 0.21972-0.7295 0.21972h-0.60644v-0.68847h0.32812c0.17774 0 0.30664-0.0283 0.38672-0.085 0.082-0.0566 0.14551-0.15821 0.19043-0.30469l0.0293-0.0908-1.4619-3.4072" fill="#908f8b" filter="url(#e)" opacity=".35" stroke="#747474" stroke-width=".15693"/> <path transform="matrix(.88851 0 0 .88851 -174.39 -639.21)" d="m462.78 731.06v0.79688c-0.22461-0.0937-0.44141-0.16406-0.65039-0.21094-0.20899-0.0469-0.40626-0.0703-0.5918-0.0703-0.19922 0-0.34766 0.0254-0.44531 0.0762-0.0957 0.0488-0.14356 0.125-0.14356 0.22851 0 0.084 0.0361 0.14844 0.1084 0.19336 0.0742 0.0449 0.20605 0.0781 0.39551 0.0996l0.18457 0.0264c0.53711 0.0684 0.89843 0.18066 1.084 0.33691 0.18555 0.15625 0.27832 0.40137 0.27832 0.73535 0 0.34961-0.12891 0.61231-0.38671 0.78809-0.25782 0.17578-0.64258 0.26367-1.1543 0.26367-0.2168 0-0.44141-0.0176-0.67383-0.0527-0.23047-0.0332-0.46777-0.084-0.71191-0.15235v-0.79687c0.20898 0.10156 0.42285 0.17773 0.6416 0.22851 0.2207 0.0508 0.44433 0.0762 0.6709 0.0762 0.20507 0 0.35937-0.0283 0.46289-0.085 0.10351-0.0566 0.15527-0.14063 0.15527-0.25196 0-0.0937-0.0361-0.16308-0.1084-0.20801-0.0703-0.0469-0.21191-0.083-0.4248-0.10839l-0.18457-0.0234c-0.4668-0.0586-0.79395-0.16699-0.98145-0.3252-0.1875-0.1582-0.28125-0.39843-0.28125-0.7207 0-0.34765 0.11914-0.60547 0.35742-0.77344 0.23828-0.16796 0.60352-0.25195 1.0957-0.25195 0.19335 0 0.39648 0.0146 0.60937 0.0439s0.44433 0.0752 0.69434 0.13769" fill="#908f8b" filter="url(#e)" opacity=".35" stroke="#747474" stroke-width=".15693"/> <path transform="matrix(.88851 0 0 .88851 -174.39 -639.21)" d="m266.46 709.92h-1.7637l-0.27832 0.79688h-1.1338l1.6201-4.374h1.3447l1.6201 4.374h-1.1338l-0.27539-0.79688m-1.4824-0.81152h1.1982l-0.59766-1.7402-0.60058 1.7402" fill="#908f8b" filter="url(#dl)" opacity=".35" stroke="#747474" stroke-width=".15693"/> <path transform="matrix(.88851 0 0 .88851 -174.39 -639.21)" d="m291.05 706.92v0.92578c-0.24023-0.10741-0.47461-0.18847-0.70312-0.24316-0.22852-0.0547-0.44434-0.082-0.64746-0.082-0.26954 0-0.46875 0.0371-0.59766 0.11133-0.12891 0.0742-0.19336 0.18945-0.19336 0.3457 0 0.11719 0.043 0.20899 0.12891 0.27539 0.0879 0.0645 0.24609 0.12012 0.47461 0.16699l0.48047 0.0967c0.48632 0.0977 0.83202 0.2461 1.0371 0.44532 0.20507 0.19922 0.30761 0.48242 0.30761 0.8496 0 0.48243-0.14356 0.8418-0.43066 1.0781-0.28516 0.23437-0.72168 0.35156-1.3096 0.35156-0.27735 0-0.55567-0.0264-0.83496-0.0791-0.2793-0.0527-0.5586-0.13086-0.83789-0.23437v-0.95215c0.27929 0.14844 0.54882 0.26074 0.80859 0.33691 0.26172 0.0742 0.51367 0.11133 0.75586 0.11133 0.24609 0 0.43457-0.041 0.56543-0.12305 0.13086-0.082 0.19629-0.19922 0.19629-0.35156 0-0.13672-0.0449-0.24219-0.13477-0.31641-0.0879-0.0742-0.26465-0.14062-0.53027-0.19922l-0.43652-0.0967c-0.4375-0.0937-0.75782-0.24317-0.96094-0.44825-0.20117-0.20507-0.30176-0.48144-0.30176-0.8291 0-0.43554 0.14063-0.7705 0.42188-1.0049 0.28125-0.23437 0.68554-0.35156 1.2129-0.35156 0.24023 0 0.4873 0.0186 0.74121 0.0557 0.2539 0.0352 0.5166 0.0889 0.78808 0.16113" fill="#908f8b" filter="url(#eb)" opacity=".35" stroke="#747474" stroke-width=".15693"/> <path transform="matrix(.88851 0 0 .88851 -174.39 -639.21)" d="m313.11 707.23v2.669h0.4043c0.46094 0 0.8125-0.11426 1.0547-0.34278 0.24414-0.22851 0.36621-0.56054 0.36621-0.99609 0-0.43359-0.1211-0.76367-0.36328-0.99023-0.24219-0.22656-0.59473-0.33984-1.0576-0.33985h-0.4043m-1.1279-0.85254h1.1895c0.66406 1e-5 1.1582 0.0479 1.4824 0.14356 0.32617 0.0937 0.60546 0.25391 0.83789 0.48047 0.20507 0.19727 0.35742 0.4248 0.45703 0.68261 0.0996 0.25782 0.14941 0.54981 0.14941 0.87598 0 0.33008-0.0498 0.625-0.14941 0.88477-0.0996 0.25781-0.25196 0.48535-0.45703 0.68261-0.23438 0.22657-0.51563 0.3877-0.84375 0.4834-0.32813 0.0937-0.82032 0.14063-1.4766 0.14063h-1.1895v-4.374" fill="#908f8b" filter="url(#dv)" opacity=".35" stroke="#747474" stroke-width=".15693"/> <path transform="matrix(.88851 0 0 .88851 -174.39 -639.21)" d="m335.95 706.43h3.0439v0.85254h-1.916v0.81445h1.8018v0.85254h-1.8018v1.8545h-1.1279v-4.374" fill="#908f8b" filter="url(#ds)" opacity=".35" stroke="#747474" stroke-width=".15693"/> <path transform="matrix(.88851 0 0 .88851 -174.39 -639.21)" d="m363.39 710.59c-0.28126 0.13672-0.57325 0.23926-0.87598 0.30762-0.30274 0.0684-0.61524 0.10254-0.9375 0.10254-0.72852 0-1.3057-0.20313-1.7314-0.60938-0.42578-0.4082-0.63867-0.96093-0.63867-1.6582 0-0.70508 0.2168-1.2598 0.65039-1.6641 0.4336-0.4043 1.0273-0.60644 1.7812-0.60645 0.29102 1e-5 0.56934 0.0274 0.83496 0.082 0.26758 0.0547 0.51953 0.13575 0.75586 0.24317v0.90527c-0.24414-0.13867-0.48731-0.24218-0.72949-0.31055-0.24024-0.0684-0.48145-0.10253-0.72363-0.10254-0.44922 1e-5 -0.7959 0.12598-1.04 0.37793-0.24219 0.25001-0.36328 0.60841-0.36328 1.0752 0 0.46289 0.11718 0.82031 0.35156 1.0723 0.23437 0.25195 0.56738 0.37793 0.99902 0.37792 0.11719 1e-5 0.22559-7e-3 0.3252-0.0205 0.10156-0.0156 0.19238-0.0391 0.27246-0.0703v-0.8496h-0.68848v-0.75586h1.7578v2.1035" fill="#908f8b" filter="url(#dz)" opacity=".35" stroke="#747474" stroke-width=".15693"/> <path transform="matrix(.88851 0 0 .88851 -174.39 -639.21)" d="m383.14 706.47h1.1279v1.667h1.6641v-1.667h1.1279v4.374h-1.1279v-1.8545h-1.6641v1.8545h-1.1279v-4.374" fill="#908f8b" filter="url(#dw)" opacity=".35" stroke="#747474" stroke-width=".15693"/> <path transform="matrix(.88851 0 0 .88851 -174.39 -639.21)" d="m408.99 706.25h1.1279v3.9492c-1e-5 0.54492-0.14844 0.95215-0.44532 1.2217-0.29492 0.26953-0.74219 0.4043-1.3418 0.4043h-0.22852v-0.85254h0.17578c0.23438 0 0.41113-0.0654 0.53027-0.19629 0.1211-0.13086 0.18165-0.32324 0.18165-0.57715v-3.9492" fill="#908f8b" filter="url(#dn)" opacity=".35" stroke="#747474" stroke-width=".15693"/> <path transform="matrix(.88851 0 0 .88851 -174.39 -639.21)" d="m431.13 706.69h1.1279v1.5967l1.626-1.5967h1.3096l-2.1064 2.0713 2.3232 2.3027h-1.4121l-1.7402-1.7227v1.7227h-1.1279v-4.374" fill="#908f8b" filter="url(#dy)" opacity=".35" stroke="#747474" stroke-width=".15693"/> <path transform="matrix(.88851 0 0 .88851 -174.39 -639.21)" d="m455.97 706.6h1.1279v3.5215h1.9805v0.85254h-3.1084v-4.374" fill="#908f8b" filter="url(#do)" opacity=".35" stroke="#747474" stroke-width=".15693"/> <path transform="matrix(.88851 0 0 .88851 -174.39 -639.21)" d="m263.75 730.15h3.6768v0.68262l-2.3467 2.8389h2.4141v0.85254h-3.8115v-0.68261l2.3467-2.8389h-2.2793v-0.85254" fill="#908f8b" filter="url(#dq)" opacity=".35" stroke="#747474" stroke-width=".15693"/> <path transform="matrix(.88851 0 0 .88851 -174.39 -639.21)" d="m290.14 732.16 1.5176 2.2324h-1.1748l-1.0225-1.4941-1.0137 1.4941h-1.1807l1.5176-2.2324-1.459-2.1416h1.1777l0.95801 1.4092 0.95508-1.4092h1.1836l-1.459 2.1416" fill="#908f8b" filter="url(#dm)" opacity=".35" stroke="#747474" stroke-width=".15693"/> <path transform="matrix(.88851 0 0 .88851 -174.39 -639.21)" d="m315.35 733.9c-0.20704 0.10743-0.42286 0.18848-0.64746 0.24317-0.22462 0.0547-0.45899 0.082-0.70313 0.082-0.72852 0-1.3057-0.20313-1.7314-0.60938-0.42578-0.4082-0.63868-0.96093-0.63867-1.6582-1e-5 -0.69921 0.21289-1.252 0.63867-1.6582 0.42578-0.4082 1.0029-0.6123 1.7314-0.61231 0.24414 1e-5 0.47851 0.0273 0.70313 0.082 0.2246 0.0547 0.44042 0.13575 0.64746 0.24317v0.90527c-0.20899-0.14257-0.41504-0.24706-0.61817-0.31347-0.20312-0.0664-0.41699-0.0996-0.6416-0.0996-0.40234 0-0.71875 0.12891-0.94922 0.38672s-0.3457 0.61328-0.3457 1.0664c0 0.45117 0.11523 0.80567 0.3457 1.0635 0.23047 0.25781 0.54688 0.38672 0.94922 0.38672 0.22461 0 0.43848-0.0332 0.6416-0.0996 0.20313-0.0664 0.40918-0.1709 0.61817-0.31348v0.90527" fill="#908f8b" filter="url(#dx)" opacity=".35" stroke="#747474" stroke-width=".15693"/> <path transform="matrix(.88851 0 0 .88851 -174.39 -639.21)" d="m335.1 730.08h1.1338l1.1602 3.2285 1.1572-3.2285h1.1338l-1.6201 4.374h-1.3447l-1.6201-4.374" fill="#908f8b" filter="url(#du)" opacity=".35" stroke="#747474" stroke-width=".15693"/> <path transform="matrix(.88851 0 0 .88851 -174.39 -639.21)" d="m361.74 731.71c0.17773 0 0.3125-0.0391 0.4043-0.11719 0.0918-0.0781 0.13769-0.19336 0.13769-0.3457 0-0.15039-0.0459-0.26465-0.13769-0.34278-0.0918-0.0801-0.22657-0.12011-0.4043-0.12011h-0.62402v0.92578h0.62402m0.0381 1.9131c0.22656 0 0.39648-0.0479 0.50976-0.14355 0.11523-0.0957 0.17285-0.24023 0.17285-0.43359 0-0.18946-0.0566-0.33106-0.16992-0.42481-0.11328-0.0957-0.28418-0.14355-0.51269-0.14355h-0.66211v1.1455h0.66211m1.0488-1.5732c0.24218 0.0703 0.42968 0.2002 0.5625 0.38965 0.1328 0.18945 0.19921 0.42188 0.19921 0.69727 0 0.42187-0.14258 0.73632-0.42773 0.94336-0.28516 0.20703-0.71875 0.31054-1.3008 0.31054h-1.8721v-4.374h1.6934c0.60742 0 1.0469 0.0918 1.3184 0.27539 0.27343 0.1836 0.41015 0.47754 0.41015 0.88184 0 0.21289-0.0498 0.39453-0.14941 0.54492-0.0996 0.14844-0.24415 0.25879-0.43359 0.33105" fill="#908f8b" filter="url(#dp)" opacity=".35" stroke="#747474" stroke-width=".15693"/> <path transform="matrix(.88851 0 0 .88851 -174.39 -639.21)" d="m383.1 730.15h1.2598l1.5908 3v-3h1.0693v4.374h-1.2598l-1.5908-3v3h-1.0693v-4.374" fill="#908f8b" filter="url(#dt)" opacity=".35" stroke="#747474" stroke-width=".15693"/> <path transform="matrix(.88851 0 0 .88851 -174.39 -639.21)" d="m406.77 730.02h1.4356l0.99609 2.3408 1.002-2.3408h1.4326v4.374h-1.0664v-3.1992l-1.0078 2.3584h-0.71485l-1.0078-2.3584v3.1992h-1.0693v-4.374" fill="#908f8b" filter="url(#dr)" opacity=".35" stroke="#747474" stroke-width=".15693"/> <path transform="matrix(.88851 0 0 .88851 -174.39 -639.21)" d="m432.34 732.88h1.0547v1.1338h-1.0547v-1.1338" fill="#908f8b" filter="url(#ea)" opacity=".35" stroke="#747474" stroke-width=".15693"/> <path d="m254.37 7.7087h1.0334v6.2142h-1.0334l-3.3214 0.01433 0.0167 0.83541-1.6508-1.3481 1.6584-1.4984-0.0133 0.88128 3.3096-0.01433v-5.0844z" fill="#908f8b" opacity=".35" stroke="#747474" stroke-width=".078251"/> <path d="m61.334 36.207-0.01433-5.1872-0.83542 0.01673 1.3481-1.6508 1.4984 1.6585-0.88128-0.01283 0.01433 5.1755h-1.1297z" fill="#908f8b" opacity=".35" stroke="#747474" stroke-width=".078251"/> <path d="m282.44-13.126 2.5434-3.002 2.5604 3.0157-1.1222-0.0035-1.4327-1.8069-1.4212 1.7989-1.1276-0.0035v0.001427z" fill="#908f8b" opacity=".35" stroke="#747474" stroke-width=".1403"/> <path d="m298.68-1.7255 3.002 2.5434-3.0157 2.5604 3e-3 -1.1222 1.8069-1.4327-1.7988-1.4212 3e-3 -1.1276h-0.00141z" fill="#908f8b" opacity=".35" stroke="#747474" stroke-width=".1403"/> <path d="m282.44 14.356 2.5434 3.002 2.5604-3.0157-1.1222 0.0035-1.4327 1.8069-1.4212-1.7989-1.1276 0.0035v-0.00142z" fill="#908f8b" opacity=".35" stroke="#747474" stroke-width=".1403"/> <path d="m271.11-1.7255-3.002 2.5434 3.0157 2.5604-3e-3 -1.1222-1.8069-1.4327 1.7988-1.4212-3e-3 -1.1276h0.00142z" fill="#908f8b" opacity=".35" stroke="#747474" stroke-width=".1403"/> <text x="148.30675" y="-418.0195" fill="#9f9f95" font-family="FreeSans" font-size="10.671px" font-weight="bold" stroke="#303030" stroke-width=".41831" style="line-height:100%"><tspan x="148.30675" y="-418.0195" stroke-width=".41831">ebook</tspan></text> <path d="m154.91-417.22c4.8944 6.2454 21.281 8.1437 28.146 1.9927-9.3713 3.9247-18.614 3.1671-28.146-1.9927zm30.886 0c-1.8442 0.73341-2.1734 0.875-5.4798 0.99633 1.2852 0.61548 1.3583 0.76558 3.4872 0.49817-0.90403 1.5133-1.0118 1.9472-0.49817 2.989 0.8667-2.0997 1.2889-2.4367 2.4908-4.4835z" fill="#9f9f95" stroke="#303030" stroke-width=".41831"/> <text x="180.40466" y="-417.99985" fill="#9f9f95" font-family="FreeSans" font-size="10.671px" font-weight="bold" stroke="#303030" stroke-width=".41831" style="line-height:100%"><tspan x="180.40466" y="-417.99985" stroke-width=".41831"><tspan font-family="'Arista 2.0 Light'" font-size="10.671px" font-weight="300" stroke="#303030" stroke-width=".41831" style="line-height:100%">reader</tspan></tspan></text> </g> </g> </svg>